<svg width="22" height="22" viewBox="0 0 22 22" fill="none" xmlns="http://www.w3.org/2000/svg">
<path d="M11.7715 7.91241L6.88077 12.2555C4.56577 14.2224 7.99021 17.2622 10.2036 15.2062L15.094 10.8634C17.5427 8.68887 13.7176 6.18389 11.7715 7.91241Z" fill="#B9B9B9"/>
<path d="M4.84799 7.62457C4.46369 7.23973 3.84639 7.23973 3.4621 7.62457L2.21619 8.87106C-0.772181 11.8618 -0.747014 16.7711 2.34429 19.7658C5.43729 22.7593 10.2046 22.7268 13.1322 19.7966L14.3795 18.5487C14.7624 18.1653 14.7624 17.5464 14.3795 17.1633L12.8701 15.6525C12.4872 15.2693 11.8685 15.2693 11.4856 15.6525L10.2383 16.901C8.81561 18.3246 6.59158 18.3229 5.13981 16.8701C3.68889 15.4182 3.68747 13.1915 5.1104 11.7676L6.35631 10.5205C6.73919 10.1359 6.7406 9.5185 6.35631 9.13394L4.84799 7.62457Z" fill="#B9B9B9"/>
<path d="M7.61922 4.84743C7.23606 4.46288 7.23606 3.84619 7.62064 3.46164L8.86747 2.21552C11.858 -0.772088 16.7672 -0.747206 19.7606 2.34531C22.7555 5.43641 22.7232 10.2037 19.7929 13.1331L18.5447 14.3789C18.1601 14.7617 17.5426 14.7634 17.1592 14.3789L15.6483 12.8693C15.2638 12.4864 15.2652 11.8694 15.6483 11.4849L16.8952 10.2379C18.3205 8.81508 18.3174 6.59147 16.8657 5.14093C15.4123 3.68897 13.1869 3.68756 11.7632 5.11011L10.515 6.35594C10.1318 6.73992 9.51267 6.73992 9.12951 6.35594L7.61922 4.84743Z" fill="#B9B9B9"/>
</svg>
