<svg width="25" height="25" viewBox="0 0 25 25" fill="none" xmlns="http://www.w3.org/2000/svg">
<path d="M10.75 14.75L8.0625 12.0625C7.83333 11.8333 7.54166 11.7187 7.1875 11.7187C6.83333 11.7187 6.54166 11.8333 6.3125 12.0625C6.08333 12.2917 5.96875 12.5833 5.96875 12.9375C5.96875 13.2917 6.08333 13.5833 6.3125 13.8125L9.87499 17.375C10.125 17.625 10.4167 17.75 10.75 17.75C11.0833 17.75 11.375 17.625 11.625 17.375L18.6875 10.3125C18.9167 10.0833 19.0312 9.79166 19.0312 9.4375C19.0312 9.08333 18.9167 8.79167 18.6875 8.5625C18.4583 8.33333 18.1667 8.21875 17.8125 8.21875C17.4583 8.21875 17.1667 8.33333 16.9375 8.5625L10.75 14.75ZM12.5 25C10.7708 25 9.14583 24.6717 7.625 24.015C6.10416 23.3583 4.78125 22.4679 3.65625 21.3437C2.53125 20.2196 1.64083 18.8967 0.985001 17.375C0.329168 15.8533 0.000834915 14.2283 1.58228e-06 12.5C-0.000831751 10.7717 0.327501 9.14666 0.985001 7.625C1.6425 6.10333 2.53292 4.78042 3.65625 3.65625C4.77958 2.53208 6.1025 1.64167 7.625 0.985C9.1475 0.328333 10.7725 0 12.5 0C14.2275 0 15.8525 0.328333 17.375 0.985C18.8975 1.64167 20.2204 2.53208 21.3437 3.65625C22.4671 4.78042 23.3579 6.10333 24.0162 7.625C24.6746 9.14666 25.0025 10.7717 25 12.5C24.9975 14.2283 24.6692 15.8533 24.015 17.375C23.3608 18.8967 22.4704 20.2196 21.3437 21.3437C20.2171 22.4679 18.8942 23.3587 17.375 24.0162C15.8558 24.6737 14.2308 25.0017 12.5 25Z" fill="#D107FB"/>
</svg>
