<svg width="47" height="47" viewBox="0 0 47 47" fill="none" xmlns="http://www.w3.org/2000/svg">
<path d="M23.5 47C10.5213 47 -3.8147e-06 36.4787 -3.8147e-06 23.5C-3.8147e-06 10.5213 10.5213 0 23.5 0C36.4787 0 47 10.5213 47 23.5C47 36.4787 36.4787 47 23.5 47Z" fill="#C406EF"/>
<path d="M42.9336 31.3081L29.4721 7.74352C29.3604 7.71641 29.1719 8.11023 29.1067 8.2161C27.5553 10.7365 26.2434 13.4164 24.6927 15.9395L24.5991 16.2281L33.2818 31.3081H42.9336Z" fill="white"/>
<path d="M4.12642 31.3146H13.7782L22.4609 16.2345L22.3673 15.9459L17.6512 7.75L4.12642 31.3146Z" fill="white"/>
<path d="M23.5354 22.4022C23.4457 22.3809 23.425 22.4551 23.385 22.5087L18.4048 31.3386L23.4495 40.1783L23.6 40.2848L28.668 31.3483L23.5354 22.4022Z" fill="white"/>
</svg>
