<svg width="23" height="23" viewBox="0 0 23 23" fill="none" xmlns="http://www.w3.org/2000/svg">
<path d="M5.75 14.375H5.175C3.90042 14.375 2.875 13.3496 2.875 12.075V5.175C2.875 3.90042 3.90042 2.875 5.175 2.875H12.075C13.3496 2.875 14.375 3.90042 14.375 5.175V5.75M10.925 8.625H17.825C18.435 8.625 19.02 8.86732 19.4513 9.29865C19.8827 9.72999 20.125 10.315 20.125 10.925V17.825C20.125 18.435 19.8827 19.02 19.4513 19.4513C19.02 19.8827 18.435 20.125 17.825 20.125H10.925C10.315 20.125 9.72999 19.8827 9.29865 19.4513C8.86732 19.02 8.625 18.435 8.625 17.825V10.925C8.625 10.623 8.68449 10.3239 8.80008 10.0448C8.91566 9.76578 9.08508 9.51223 9.29865 9.29865C9.51223 9.08508 9.76578 8.91566 10.0448 8.80008C10.3239 8.68449 10.623 8.625 10.925 8.625Z" stroke="white" stroke-width="1.3125" stroke-miterlimit="10" stroke-linecap="round" stroke-linejoin="round"/>
</svg>
