<svg width="16" height="16" viewBox="0 0 16 16" fill="none" xmlns="http://www.w3.org/2000/svg">
<path opacity="0.5" d="M8 16C4.2288 16 2.3432 16 1.1712 14.828C0 13.6576 0 11.7712 0 8C0 4.2288 0 2.3432 1.1712 1.1712C2.344 0 4.2288 0 8 0C11.7712 0 13.6568 0 14.828 1.1712C16 2.344 16 4.2288 16 8C16 11.7712 16 13.6568 14.828 14.828C13.6576 16 11.7712 16 8 16Z" fill="#9D9D9D"/>
<path d="M4.16362 4.18327C4.34115 4.00649 4.5818 3.90719 4.83271 3.90719C5.08362 3.90719 5.32426 4.00649 5.50179 4.18327L7.98878 6.66289L10.4758 4.18327C10.5624 4.09052 10.667 4.01613 10.7831 3.96454C10.8993 3.91294 11.0246 3.8852 11.1518 3.88296C11.2789 3.88072 11.4052 3.90404 11.5231 3.95152C11.641 3.999 11.7481 4.06967 11.838 4.15931C11.9279 4.24895 11.9988 4.35573 12.0464 4.47328C12.094 4.59082 12.1174 4.71673 12.1151 4.84348C12.1129 4.97024 12.0851 5.09524 12.0333 5.21104C11.9816 5.32684 11.907 5.43106 11.8139 5.51748L9.32695 7.9971L11.8139 10.4767C11.907 10.5631 11.9816 10.6674 12.0333 10.7832C12.0851 10.899 12.1129 11.024 12.1151 11.1507C12.1174 11.2775 12.094 11.4034 12.0464 11.5209C11.9988 11.6385 11.9279 11.7452 11.838 11.8349C11.7481 11.9245 11.641 11.9952 11.5231 12.0427C11.4052 12.0902 11.2789 12.1135 11.1518 12.1112C11.0246 12.109 10.8993 12.0813 10.7831 12.0297C10.667 11.9781 10.5624 11.9037 10.4758 11.8109L7.98878 9.33131L5.50179 11.8109C5.32231 11.9777 5.08491 12.0685 4.83962 12.0641C4.59433 12.0598 4.3603 11.9608 4.18682 11.7878C4.01335 11.6148 3.91398 11.3815 3.90965 11.1369C3.90532 10.8924 3.99637 10.6557 4.16362 10.4767L6.6506 7.9971L4.16362 5.51748C3.98631 5.34048 3.88672 5.10054 3.88672 4.85038C3.88672 4.60021 3.98631 4.36028 4.16362 4.18327Z" fill="#2C2C2C"/>
</svg>
