<?xml version="1.0" encoding="UTF-8"?>
<svg version="1.1" xmlns="http://www.w3.org/2000/svg" width="512" height="512">
<path d="M0 0 C25.14482526 -0.86540508 50.40028152 8.06742567 69.54296875 24.1796875 C70.24164063 24.71722656 70.9403125 25.25476563 71.66015625 25.80859375 C92.18573752 42.25378838 103.40751265 69.40661608 106.33203125 94.9296875 C108.92530374 122.59126077 101.62403617 149.97368205 83.90136719 171.59423828 C74.47498552 182.59620136 63.96949126 190.72645908 51.4765625 198.015625 C49.60702011 199.03527095 49.60702011 199.03527095 48.54296875 200.1796875 C49.4966333 200.48672607 50.45029785 200.79376465 51.43286133 201.11010742 C54.97804175 202.25679048 58.5150247 203.42715249 62.05004883 204.60473633 C63.57949891 205.11055785 65.11108133 205.60997951 66.64477539 206.1027832 C68.8524765 206.81339818 71.05141772 207.54688056 73.25 208.28515625 C73.93447708 208.4999614 74.61895416 208.71476654 75.32417297 208.93608093 C78.54457415 210.04158649 80.36000236 210.95099658 82.5065918 213.6340332 C83.95309375 217.18707817 83.49468197 219.50879364 82.54296875 223.1796875 C81.41796875 225.0546875 81.41796875 225.0546875 79.54296875 226.1796875 C73.67474591 227.53807668 69.88556551 226.74593591 64.3984375 224.79296875 C63.62977859 224.53468796 62.86111969 224.27640717 62.06916809 224.01029968 C59.61788074 223.18500511 57.17391534 222.34038798 54.73046875 221.4921875 C37.63401727 215.60254237 20.77670727 210.37723613 2.54296875 210.1796875 C1.42535156 210.16679687 0.30773437 210.15390625 -0.84375 210.140625 C-39.26077541 211.25914982 -80.31389122 230.69203653 -116.08410645 243.34320068 C-118.28874093 244.12036298 -120.49584957 244.88992754 -122.70410156 245.65673828 C-124.5482666 246.30231689 -124.5482666 246.30231689 -126.4296875 246.9609375 C-127.97861694 247.49944336 -127.97861694 247.49944336 -129.55883789 248.04882812 C-146.8918189 254.81206358 -159.44965369 267.98701521 -167.05078125 284.6796875 C-168.30136618 287.8206915 -169.42478763 290.9610038 -170.45703125 294.1796875 C-170.69035156 294.89511719 -170.92367187 295.61054688 -171.1640625 296.34765625 C-174.432064 307.7503953 -173.67211767 320.35414253 -173.69726562 332.10766602 C-173.70704901 334.87220495 -173.73820419 337.63602265 -173.76953125 340.40039062 C-173.7760567 342.1848915 -173.78130897 343.96939759 -173.78515625 345.75390625 C-173.79750305 346.56663498 -173.80984985 347.37936371 -173.8225708 348.21672058 C-173.80077599 353.89174592 -172.91287747 359.01664054 -170.45703125 364.1796875 C-165.40217021 369.11125924 -161.65970833 369.32753466 -154.85342407 369.32444763 C-153.50139659 369.3297379 -153.50139659 369.3297379 -152.12205541 369.33513504 C-149.08348107 369.34586118 -146.04493802 369.34950979 -143.00634766 369.35327148 C-140.83522915 369.3595737 -138.66411194 369.36633913 -136.49299622 369.37353516 C-131.80851129 369.38822747 -127.12403144 369.39994307 -122.43953323 369.40948296 C-115.03676238 369.42490137 -107.63403471 369.44884983 -100.23129272 369.47438049 C-79.17765971 369.5456754 -58.12400293 369.60540392 -37.0703125 369.65649414 C-25.44962157 369.6847692 -13.82897359 369.7201349 -2.20832765 369.76314789 C5.15492463 369.78997024 12.51812831 369.80784473 19.8814199 369.81918514 C24.45844644 369.82829312 29.0354138 369.84564638 33.61240578 369.86536407 C35.73929352 369.87285512 37.86619642 369.87692157 39.99309731 369.87735939 C42.89064779 369.87843773 45.78789535 369.89164791 48.68539429 369.90794373 C49.53227826 369.90532687 50.37916222 369.90271002 51.25170934 369.90001386 C58.45008527 369.96349912 58.45008527 369.96349912 61.54296875 372.1796875 C63.84265438 375.39924738 64.09645513 378.30528282 63.54296875 382.1796875 C61.56349876 384.85422522 59.96238834 386.84008405 56.62102008 387.63952363 C54.23819006 387.82321153 51.9016048 387.8411724 49.5118103 387.80787659 C48.60058367 387.81497097 47.68935704 387.82206536 46.75051749 387.82937473 C43.69571727 387.84698285 40.64218469 387.8288349 37.58740234 387.81079102 C35.39763814 387.81592895 33.20787807 387.82320928 31.01812744 387.83247375 C25.06730633 387.85101823 19.11693221 387.83802699 13.16612959 387.81838346 C6.93591248 387.80200855 0.70572395 387.81080882 -5.52450562 387.81590271 C-15.99410316 387.82042696 -26.46355281 387.80464275 -36.93310547 387.77661133 C-47.68838938 387.74781549 -58.44341861 387.7406703 -69.19873047 387.75610352 C-82.17230836 387.77469443 -95.14572728 387.7728942 -108.11930466 387.75388908 C-113.06721525 387.74703039 -118.015031 387.74803913 -122.96294022 387.75543404 C-128.79889927 387.76312139 -134.63449339 387.7508904 -140.47039032 387.72358513 C-142.6072392 387.71672404 -144.74412231 387.71657876 -146.88097 387.72380066 C-172.89755057 387.80156484 -172.89755057 387.80156484 -182.68388367 378.32615662 C-189.91654132 369.57072282 -191.35086824 360.72752616 -191.21875 349.67578125 C-191.22025908 348.30354987 -191.22370528 346.93131944 -191.22895813 345.55909729 C-191.23325951 342.69707849 -191.21670149 339.83619794 -191.18432617 336.97436523 C-191.14480509 333.36561526 -191.15422791 329.75900775 -191.1779108 326.15019035 C-191.34052958 296.0489613 -185.86209919 271.63183877 -164.14453125 249.4296875 C-158.73283231 244.06707957 -153.13064178 239.88904213 -146.45703125 236.1796875 C-145.25781036 235.5063588 -145.25781036 235.5063588 -144.03436279 234.81942749 C-134.31871295 229.67298521 -124.01563731 226.44635763 -113.59765625 223.03125 C-111.59672231 222.36800958 -109.59605511 221.70396397 -107.59564209 221.03915405 C-102.37054448 219.30503287 -97.14193345 217.58175991 -91.91247559 215.86083984 C-86.5605486 214.0974493 -81.21207132 212.32365908 -75.86328125 210.55078125 C-65.39785259 207.08365185 -54.92867681 203.62799078 -44.45703125 200.1796875 C-47.27327082 198.02877314 -50.14995001 196.12022403 -53.17700195 194.27563477 C-61.1399307 189.37293456 -67.85060994 183.77671134 -74.45703125 177.1796875 C-75.27042969 176.37789062 -76.08382812 175.57609375 -76.921875 174.75 C-94.31564296 156.61290862 -102.17155693 130.87844044 -102.70703125 106.1796875 C-102.07204993 79.93379293 -93.727984 53.54689741 -75.45703125 34.1796875 C-74.58046875 33.23609375 -73.70390625 32.2925 -72.80078125 31.3203125 C-67.20836868 25.43705094 -61.3935539 20.40448175 -54.45703125 16.1796875 C-52.84441406 15.19355469 -52.84441406 15.19355469 -51.19921875 14.1875 C-35.29646116 4.89809608 -18.17325748 1.32904586 0 0 Z M-55.45703125 39.1796875 C-56.44316406 39.96472656 -57.42929688 40.74976562 -58.4453125 41.55859375 C-73.67879649 54.81626918 -83.60024519 76.30519963 -85.45703125 96.1796875 C-86.9006678 119.65422897 -81.03339368 142.35833175 -65.703125 160.64453125 C-49.10741835 179.37603319 -29.15940815 190.66883928 -3.89453125 193.0546875 C18.4973524 194.39365614 42.1342502 186.7136835 59.2109375 172.2578125 C59.98050781 171.57203125 60.75007812 170.88625 61.54296875 170.1796875 C62.30222656 169.51453125 63.06148437 168.849375 63.84375 168.1640625 C80.06535328 153.03510607 88.5353993 131.05318349 89.703125 109.1796875 C90.35430209 84.26508584 81.8532716 62.03769365 65.1953125 43.578125 C48.9550009 26.5399534 26.47624415 18.25527029 3.28295898 17.1328125 C-18.60268233 16.64009539 -38.95314314 25.16083655 -55.45703125 39.1796875 Z " fill="#FFFFFF" transform="translate(222.45703125,54.8203125)"/>
<path d="M0 0 C1.2065625 -0.01160156 1.2065625 -0.01160156 2.4375 -0.0234375 C10.28406035 1.19660695 15.03540158 7.02018835 20.3359375 12.41796875 C21.21528961 13.3015657 22.09464172 14.18516266 23.00064087 15.09553528 C25.32405199 17.43285386 27.64080778 19.77651039 29.95446777 22.12347412 C32.3222041 24.52203558 34.69857896 26.91200518 37.07421875 29.30273438 C41.72411001 33.9856486 46.36532437 38.677029 51 43.375 C54.30002149 41.93573901 56.45210188 40.15747174 58.97070312 37.59960938 C59.73829956 36.82540649 60.505896 36.05120361 61.29675293 35.25354004 C62.11663696 34.41705933 62.936521 33.58057861 63.78125 32.71875 C64.63174927 31.86067749 65.48224854 31.00260498 66.35852051 30.11853027 C69.07718441 27.37542222 71.78933693 24.62601319 74.5 21.875 C78.0671971 18.25470268 81.64087133 14.64098778 85.21875 11.03125 C86.03863403 10.19476929 86.85851807 9.35828857 87.70324707 8.49645996 C88.47084351 7.72225708 89.23843994 6.9480542 90.02929688 6.15039062 C90.70118042 5.46803345 91.37306396 4.78567627 92.06530762 4.0826416 C95.65553921 0.91375083 98.56310766 0.0671767 103.3125 0 C104.21613281 -0.02835937 105.11976563 -0.05671875 106.05078125 -0.0859375 C112.58808283 0.93578646 117.33079399 5.25612008 121.828125 9.83984375 C122.34381042 10.35503067 122.85949585 10.87021759 123.39080811 11.40101624 C124.46988483 12.48241565 125.5453145 13.56746576 126.6171875 14.65600586 C128.25101163 16.31352631 129.89786172 17.95721372 131.546875 19.59960938 C132.59975402 20.65806326 133.65186445 21.71728237 134.703125 22.77734375 C135.19065247 23.26395981 135.67817993 23.75057587 136.18048096 24.25193787 C140.81270175 28.98063353 143.42885855 32.59809119 143.4375 39.3125 C143.45683594 40.31152344 143.47617187 41.31054688 143.49609375 42.33984375 C142.2450062 49.99413532 135.34378667 55.29182263 130.078125 60.4921875 C129.21813904 61.34934357 128.35815308 62.20649963 127.47210693 63.08963013 C124.73608008 65.81450106 121.99316607 68.53231821 119.25 71.25 C117.38886355 73.10110075 115.52818124 74.95265824 113.66796875 76.8046875 C109.11722724 81.3334295 104.56081762 85.85640685 100 90.375 C101.43926099 93.67502149 103.21752826 95.82710188 105.77539062 98.34570312 C106.93669495 99.49709778 106.93669495 99.49709778 108.12145996 100.67175293 C109.37618103 101.90157898 109.37618103 101.90157898 110.65625 103.15625 C111.51432251 104.00674927 112.37239502 104.85724854 113.25646973 105.73352051 C115.99957778 108.45218441 118.74898681 111.16433693 121.5 113.875 C125.12029732 117.4421971 128.73401222 121.01587133 132.34375 124.59375 C133.59847107 125.82357605 133.59847107 125.82357605 134.87854004 127.07824707 C136.03984436 128.22964172 136.03984436 128.22964172 137.22460938 129.40429688 C137.90696655 130.07618042 138.58932373 130.74806396 139.2923584 131.44030762 C142.63082356 135.22266049 143.31139103 138.25033464 143.375 143.25 C143.40335938 144.25804687 143.43171875 145.26609375 143.4609375 146.3046875 C142.51980544 152.57358412 137.73827166 156.96162889 133.421875 161.32421875 C132.89160706 161.86351517 132.36133911 162.40281158 131.81500244 162.95845032 C130.69822615 164.089647 129.57869318 165.2181282 128.45654297 166.34399414 C126.75620736 168.05624912 125.07545511 169.78629042 123.39453125 171.51757812 C122.30063479 172.62093857 121.20561842 173.72319009 120.109375 174.82421875 C119.36986603 175.5930262 119.36986603 175.5930262 118.61541748 176.37736511 C114.29982553 180.63909917 109.63879159 182.90287831 103.53125 183.6953125 C99.17546957 183.27648746 96.51034723 182.30995036 93.25976562 179.33959961 C92.22009644 178.39127762 92.22009644 178.39127762 91.15942383 177.42379761 C87.49414697 173.94629108 83.90394612 170.40122852 80.34375 166.81640625 C79.55601196 166.02725327 78.76827393 165.23810028 77.95666504 164.42503357 C75.46872898 161.93154988 72.98431376 159.43459216 70.5 156.9375 C68.8023159 155.23479413 67.10440142 153.53231793 65.40625 151.83007812 C61.2681672 147.68103588 57.13296065 143.52914424 53 139.375 C49.69997851 140.81426099 47.54789812 142.59252826 45.02929688 145.15039062 C43.87790222 146.31169495 43.87790222 146.31169495 42.70324707 147.49645996 C41.47342102 148.75118103 41.47342102 148.75118103 40.21875 150.03125 C39.36825073 150.88932251 38.51775146 151.74739502 37.64147949 152.63146973 C34.92281559 155.37457778 32.21066307 158.12398681 29.5 160.875 C25.9328029 164.49529732 22.35912867 168.10901222 18.78125 171.71875 C17.55142395 172.97347107 17.55142395 172.97347107 16.29675293 174.25354004 C15.52915649 175.02774292 14.76156006 175.8019458 13.97070312 176.59960938 C13.29881958 177.28196655 12.62693604 177.96432373 11.93469238 178.6673584 C8.15233951 182.00582356 5.12466536 182.68639103 0.125 182.75 C-0.88304687 182.77835938 -1.89109375 182.80671875 -2.9296875 182.8359375 C-9.19858412 181.89480544 -13.58662889 177.11327166 -17.94921875 172.796875 C-18.48851517 172.26660706 -19.02781158 171.73633911 -19.58345032 171.19000244 C-20.714647 170.07322615 -21.8431282 168.95369318 -22.96899414 167.83154297 C-24.68124912 166.13120736 -26.41129042 164.45045511 -28.14257812 162.76953125 C-29.24593857 161.67563479 -30.34819009 160.58061842 -31.44921875 159.484375 C-31.96175705 158.99136902 -32.47429535 158.49836304 -33.00236511 157.99041748 C-37.04588257 153.89579986 -39.81692922 149.18266941 -40.09916687 143.31243896 C-39.37098526 134.02277972 -32.31205638 128.41444005 -26.078125 122.2578125 C-24.78814606 120.9720784 -24.78814606 120.9720784 -23.47210693 119.66036987 C-20.73608008 116.93549894 -17.99316607 114.21768179 -15.25 111.5 C-13.38886355 109.64889925 -11.52818124 107.79734176 -9.66796875 105.9453125 C-5.11722724 101.4165705 -0.56081762 96.89359315 4 92.375 C2.55374636 89.03344865 0.75184469 86.91986852 -1.8671875 84.40771484 C-2.66141113 83.63946381 -3.45563477 82.87121277 -4.27392578 82.0796814 C-5.13228027 81.25674591 -5.99063477 80.43381042 -6.875 79.5859375 C-8.68318956 77.82253481 -10.49045249 76.05818155 -12.296875 74.29296875 C-15.14520998 71.51873759 -17.99888509 68.7510688 -20.86914062 65.99951172 C-23.63962399 63.33833929 -26.38374731 60.65216848 -29.125 57.9609375 C-29.98335449 57.1501474 -30.84170898 56.3393573 -31.72607422 55.5039978 C-37.03184521 50.24538832 -39.76764329 45.97161888 -40 38.375 C-39.19211099 29.36465298 -32.14563727 23.7096589 -25.99487305 17.75244141 C-24.18658989 15.99911755 -22.40367326 14.22276813 -20.62304688 12.44140625 C-19.47276144 11.30586435 -18.32111357 10.17170058 -17.16796875 9.0390625 C-16.37545967 8.25156113 -16.37545967 8.25156113 -15.56694031 7.44815063 C-10.97047472 3.02404741 -6.51657326 -0.06265936 0 0 Z M-2.50878906 18.73266602 C-3.08854492 19.35842529 -3.66830078 19.98418457 -4.265625 20.62890625 C-4.90886719 21.31919922 -5.55210937 22.00949219 -6.21484375 22.72070312 C-6.88644531 23.45224609 -7.55804688 24.18378906 -8.25 24.9375 C-8.90613281 25.64197266 -9.56226563 26.34644531 -10.23828125 27.07226562 C-14.26764634 31.41805203 -18.15752626 35.86391753 -22 40.375 C-21.13889366 41.23277542 -21.13889366 41.23277542 -20.26039124 42.10787964 C-14.85738284 47.49087182 -9.45676923 52.87624982 -4.05884647 58.26434135 C-1.28347267 61.03449098 1.49282601 63.8037004 4.27124023 66.57080078 C6.95126077 69.23997599 9.62884905 71.9115687 12.30475044 74.5848732 C13.32737081 75.60564229 14.35087258 76.62552915 15.37525749 77.64452744 C16.80709065 79.06912844 18.23553813 80.49712989 19.66381836 81.92529297 C20.47878281 82.7380368 21.29374725 83.55078064 22.13340759 84.38815308 C24.30503079 86.69968228 24.90738616 87.88877734 25.5 91 C24.28474601 99.20296442 14.23721236 106.27033644 8.56640625 111.90625 C7.2495005 113.22103333 7.2495005 113.22103333 5.9059906 114.56237793 C3.12718504 117.33562796 0.34490603 120.10536282 -2.4375 122.875 C-4.33319865 124.76510805 -6.22809783 126.65601518 -8.12304688 128.546875 C-12.74605189 133.15891004 -17.37190657 137.76807141 -22 142.375 C-20.3413812 145.89844644 -18.43342692 148.17401878 -15.6484375 150.921875 C-14.37226563 152.18837891 -14.37226563 152.18837891 -13.0703125 153.48046875 C-12.18085938 154.35316406 -11.29140625 155.22585938 -10.375 156.125 C-9.4778125 157.01316406 -8.580625 157.90132812 -7.65625 158.81640625 C-5.44192996 161.00716969 -3.22307565 163.19312763 -1 165.375 C2.52447796 163.87122732 4.77575373 161.83654914 7.46142578 159.12475586 C8.77265915 157.80845436 8.77265915 157.80845436 10.11038208 156.46556091 C11.05539073 155.50701992 12.00036676 154.54844676 12.9453125 153.58984375 C13.92078397 152.60809878 14.89677444 151.62686924 15.8732605 150.64613342 C18.43805859 148.06805471 20.99722373 145.4844626 23.55480957 142.89923096 C27.6542664 138.75659008 31.76051571 134.62070853 35.8699913 130.4880085 C37.30490272 129.04286343 38.7363598 127.59436031 40.16751099 126.14549255 C41.46928787 124.8339193 41.46928787 124.8339193 42.79736328 123.49584961 C43.56251251 122.72244736 44.32766174 121.9490451 45.11599731 121.15220642 C47.36540356 119.03030964 48.58442869 118.45415644 51.625 117.875 C59.82796442 119.09025399 66.89533644 129.13778764 72.53125 134.80859375 C73.84603333 136.1254995 73.84603333 136.1254995 75.18737793 137.4690094 C77.96062796 140.24781496 80.73036282 143.03009397 83.5 145.8125 C85.39010805 147.70819865 87.28101518 149.60309783 89.171875 151.49804688 C93.78391004 156.12105189 98.39307141 160.74690657 103 165.375 C112.52759755 160.83804879 119.5307207 150.48157631 126 142.375 C125.42592911 141.80314972 124.85185822 141.23129944 124.26039124 140.64212036 C118.85738284 135.25912818 113.45676923 129.87375018 108.05884647 124.48565865 C105.28347267 121.71550902 102.50717399 118.9462996 99.72875977 116.17919922 C97.04873923 113.51002401 94.37115095 110.8384313 91.69524956 108.1651268 C90.67262919 107.14435771 89.64912742 106.12447085 88.62474251 105.10547256 C87.19290935 103.68087156 85.76446187 102.25287011 84.33618164 100.82470703 C83.52121719 100.0119632 82.70625275 99.19921936 81.86659241 98.36184692 C79.69496921 96.05031772 79.09261384 94.86122266 78.5 91.75 C79.71525399 83.54703558 89.76278764 76.47966356 95.43359375 70.84375 C96.31153091 69.96722778 97.18946808 69.09070557 98.0940094 68.18762207 C100.87281496 65.41437204 103.65509397 62.64463718 106.4375 59.875 C108.33319865 57.98489195 110.22809783 56.09398482 112.12304688 54.203125 C116.74605189 49.59108996 121.37190657 44.98192859 126 40.375 C122.7498913 36.5261826 119.49349707 32.74150119 115.9140625 29.19140625 C114.86025391 28.14243164 114.86025391 28.14243164 113.78515625 27.07226562 C113.07230469 26.36779297 112.35945312 25.66332031 111.625 24.9375 C110.52091797 23.84018555 110.52091797 23.84018555 109.39453125 22.72070312 C107.59863926 20.93647277 105.80044015 19.15463876 104 17.375 C98.21766359 22.17319138 92.92130815 27.33851823 87.63671875 32.67578125 C86.76352493 33.55276169 85.89033112 34.42974213 84.99067688 35.33329773 C81.74791357 38.59028647 78.50978525 41.85185892 75.27178955 45.11358643 C72.08365734 48.32453716 68.89181199 51.53176701 65.69921875 54.73828125 C64.85654953 55.58924881 64.01388031 56.44021637 63.14567566 57.31697083 C62.36759048 58.09835922 61.58950531 58.87974762 60.7878418 59.68481445 C60.10280075 60.37509232 59.4177597 61.06537018 58.71195984 61.77656555 C56.56280553 63.78320275 55.27576472 64.32247339 52.375 64.875 C44.16571997 63.65881037 37.15255976 53.63248821 31.5390625 47.94140625 C29.7514316 46.14114742 27.9636674 44.34102096 26.17578125 42.54101562 C23.38238196 39.72265321 20.59043251 36.90287612 17.80126953 34.08032227 C15.0931722 31.3422085 12.37904261 28.61019298 9.6640625 25.87890625 C8.82453033 25.02591446 7.98499817 24.17292267 7.12002563 23.29408264 C6.34516815 22.51584641 5.57031067 21.73761017 4.77197266 20.93579102 C4.08994781 20.24630875 3.40792297 19.55682648 2.70523071 18.84645081 C0.48591907 16.93139739 -0.30088091 16.74590594 -2.50878906 18.73266602 Z " fill="#FFFFFF" transform="translate(337,273.625)"/>
</svg>
