<svg width="18" height="11" viewBox="0 0 18 11" fill="none" xmlns="http://www.w3.org/2000/svg">
<path d="M17.6157 0.381906C17.3696 0.13585 17.0358 -0.00237664 16.6878 -0.00237667C16.3398 -0.0023767 16.006 0.13585 15.7598 0.381905L9.26297 6.87878L2.76609 0.381904C2.51855 0.142822 2.18701 0.0105291 1.84288 0.0135198C1.49874 0.0165095 1.16955 0.154544 0.926204 0.397892C0.682856 0.641241 0.544823 0.970432 0.541833 1.31457C0.538842 1.6587 0.671134 1.99024 0.910218 2.23778L8.33503 9.66259C8.58116 9.90865 8.91494 10.0469 9.26297 10.0469C9.611 10.0469 9.94477 9.90865 10.1909 9.66259L17.6157 2.23778C17.8618 1.99165 18 1.65787 18 1.30984C18 0.961815 17.8618 0.628036 17.6157 0.381906Z" fill="white"/>
</svg>
