<svg width="29" height="29" viewBox="0 0 29 29" fill="none" xmlns="http://www.w3.org/2000/svg">
<path fill-rule="evenodd" clip-rule="evenodd" d="M20.2081 3.6613C19.7549 3.20825 19.1403 2.95374 18.4995 2.95374C17.8587 2.95374 17.2441 3.20825 16.7909 3.6613L4.3282 16.1241C3.87496 16.5772 3.62025 17.1917 3.62012 17.8326V24.1558C3.62012 24.8289 4.16749 25.3763 4.84053 25.3763L24.1666 25.3751C24.4871 25.3751 24.7944 25.2477 25.021 25.0211C25.2476 24.7945 25.3749 24.4872 25.3749 24.1667C25.3749 23.8462 25.2476 23.5389 25.021 23.3123C24.7944 23.0857 24.4871 22.9584 24.1666 22.9584H14.5821L25.3351 12.2054C25.7881 11.7522 26.0426 11.1377 26.0426 10.4968C26.0426 9.85603 25.7881 9.24145 25.3351 8.78826L20.2081 3.6613ZM11.1649 22.9584L23.6265 10.4968L18.4995 5.36989L6.03678 17.8326V22.9584H11.1649Z" fill="white"/>
</svg>
