<svg width="33" height="33" viewBox="0 0 33 33" fill="none" xmlns="http://www.w3.org/2000/svg">
<path d="M32.3608 15.76C31.9844 14.6437 31.6519 13.5402 31.1955 12.4394C30.9996 11.9624 30.8346 11.6169 30.7856 11.1091C30.6825 10.034 31.1904 9.03366 31.2574 7.95343C31.3399 6.68757 31.2007 5.39851 30.7289 4.21257C30.4788 3.59124 30.0637 2.96734 29.5429 2.55741C27.3747 0.835227 23.7731 0.966712 21.6281 2.65796C20.8701 3.25866 20.5582 4.22288 19.9343 4.93445C19.2717 5.69241 13.7313 5.69241 13.0687 4.93445C12.4448 4.22288 12.1329 3.25866 11.3749 2.65796C9.2299 0.966712 5.62568 0.835227 3.45748 2.55741C2.93928 2.96734 2.5242 3.59124 2.2767 4.21257C1.80232 5.39851 1.66311 6.68757 1.74303 7.95343C1.81521 9.03366 2.32053 10.034 2.2174 11.1091C2.16842 11.6169 2.00342 11.9624 1.80748 12.4394C1.34857 13.5402 1.01857 14.6462 0.642168 15.76C-0.530879 19.225 0.118809 23.6929 2.46748 26.4979C4.23865 28.6145 6.9199 30.0763 9.53412 30.8472C11.7565 31.5046 14.1309 31.6748 16.4409 31.6748H16.5595C18.8695 31.6748 21.244 31.5046 23.4663 30.8472C26.0779 30.0737 28.7618 28.6145 30.5329 26.4979C32.8816 23.6929 33.5313 19.225 32.3608 15.76Z" fill="#BDCF46"/>
<path d="M19.8565 9.8407C20.3309 9.83039 20.8516 10.1939 20.7279 10.872C20.5861 11.6557 19.297 11.55 19.1552 10.7895C19.0366 10.1527 19.4311 9.84844 19.8565 9.8407ZM13.0219 9.8407C13.4524 9.84844 13.8443 10.1527 13.7231 10.7895C13.5813 11.55 12.2923 11.6557 12.1505 10.872C12.0267 10.1939 12.5475 9.83297 13.0219 9.8407ZM4.875 6.24422C4.875 5.00156 5.68711 3.99609 6.67453 3.99609C7.66969 3.99609 8.47664 5.00156 8.47664 6.24422C8.47664 7.4843 7.66711 8.49234 6.67453 8.49234C5.68711 8.49234 4.875 7.4843 4.875 6.24422ZM26.2038 8.49234C25.2112 8.49234 24.4017 7.4843 24.4017 6.24422C24.4017 5.00156 25.2112 3.99609 26.2038 3.99609C27.1964 3.99609 28.0059 5.00156 28.0059 6.24422C28.0059 7.4843 27.1964 8.49234 26.2038 8.49234Z" fill="#1F1F1F"/>
<path d="M16.4792 18.2119C9.91269 18.2119 5.43449 13.9735 6.08159 12.638C6.72613 11.2999 11.2353 14.1539 16.4766 14.1539C21.705 14.1514 26.2167 11.2974 26.8587 12.638C27.5058 13.976 23.0302 18.2119 16.4792 18.2119Z" fill="#ED6C30"/>
</svg>
