<svg width="33" height="33" viewBox="0 0 33 33" fill="none" xmlns="http://www.w3.org/2000/svg">
<g clip-path="url(#clip0_1661_6736)">
<path d="M32.631 13.0459C34.5404 21.9559 28.8653 30.7275 19.9553 32.6369C11.0453 34.5463 2.27371 28.8712 0.364295 19.9612C-1.54512 11.0512 4.13088 2.27964 13.04 0.370223C21.95 -1.54011 30.7215 4.13589 32.631 13.0459Z" fill="#FFCB4C"/>
<path d="M26.8435 8.26097C27.0187 9.05561 27.035 9.87705 26.8916 10.678C26.7482 11.479 26.4478 12.2437 26.0077 12.9282C25.5676 13.6126 24.9966 14.2033 24.3274 14.6663C23.6582 15.1292 22.9041 15.4553 22.1084 15.6257C21.3127 15.7962 20.4912 15.8076 19.6911 15.6594C18.891 15.5112 18.1281 15.2063 17.4463 14.7621C16.7645 14.318 16.1772 13.7435 15.7182 13.0715C15.2592 12.3996 14.9377 11.6436 14.7719 10.8469C14.4399 9.25029 14.7531 7.58714 15.6431 6.2207C16.5332 4.85425 17.9279 3.89554 19.5225 3.55395C21.1171 3.21236 22.782 3.51566 24.1538 4.39759C25.5255 5.27953 26.4925 6.66844 26.8435 8.26097Z" fill="#F4F7F9"/>
<path d="M20.4473 10.3839C21.4786 10.3839 22.3146 9.54792 22.3146 8.51666C22.3146 7.48541 21.4786 6.64941 20.4473 6.64941C19.4161 6.64941 18.5801 7.48541 18.5801 8.51666C18.5801 9.54792 19.4161 10.3839 20.4473 10.3839Z" fill="#292F33"/>
<path d="M12.9139 13.0918C13.0225 13.5587 13.037 14.0426 12.9566 14.5151C12.8762 14.9877 12.7025 15.4395 12.4456 15.8442C12.1887 16.2489 11.8538 16.5984 11.4604 16.8723C11.067 17.1461 10.623 17.3389 10.1543 17.4394C9.68559 17.5398 9.20157 17.5459 8.73049 17.4572C8.2594 17.3686 7.81069 17.187 7.41053 16.9231C7.01037 16.6592 6.66677 16.3183 6.3998 15.9201C6.13283 15.522 5.94782 15.0747 5.85557 14.6043C5.67343 13.6755 5.86336 12.7124 6.38444 11.9222C6.90553 11.1321 7.7161 10.5783 8.64157 10.3799C9.56704 10.1816 10.5334 10.3547 11.3325 10.862C12.1316 11.3692 12.6995 12.17 12.9139 13.0918Z" fill="#F4F7F9"/>
<path d="M9.75863 16.2758C10.72 16.0698 11.3323 15.1235 11.1263 14.1621C10.9203 13.2008 9.97396 12.5885 9.01262 12.7945C8.05129 13.0005 7.43897 13.9468 7.64498 14.9081C7.85098 15.8695 8.7973 16.4818 9.75863 16.2758Z" fill="#292F33"/>
<path d="M17.0731 19.1923C13.8253 19.8881 11.5905 19.9715 8.8139 20.0247C8.18048 20.0384 7.02181 20.4087 7.4059 22.2017C8.17406 25.7868 13.2533 29.3857 18.9944 28.1555C24.7346 26.9253 27.8934 21.561 27.1252 17.9759C26.7411 16.1829 25.5311 16.3186 24.9481 16.5679C22.3943 17.656 20.3208 18.4966 17.0731 19.1923Z" fill="#65471B"/>
<path d="M10.0835 22.0037V27.5037C10.0835 30.2537 11.9168 33.0037 15.5835 33.0037C19.2502 33.0037 21.0835 30.2537 21.0835 27.5037V22.0037H10.0835Z" fill="#E8596E"/>
<path d="M15.5835 29.2261C15.6491 29.2261 15.7141 29.2131 15.7747 29.188C15.8353 29.1629 15.8904 29.1261 15.9368 29.0797C15.9832 29.0333 16.02 28.9783 16.0451 28.9177C16.0702 28.857 16.0831 28.7921 16.0831 28.7265V22.9561H15.083V28.7265C15.0833 28.8591 15.1361 28.9861 15.2299 29.0798C15.3238 29.1735 15.4509 29.2261 15.5835 29.2261Z" fill="#DD2F45"/>
<path d="M9.19775 21.8175C9.19775 21.8175 12.0788 22.1374 17.4569 20.9852C22.835 19.8329 25.332 18.3599 25.332 18.3599C25.332 18.3599 24.3081 22.329 18.0335 23.6738C11.7589 25.0185 9.19775 21.8175 9.19775 21.8175Z" fill="white"/>
</g>
<defs>
<clipPath id="clip0_1661_6736">
<rect width="33" height="33" fill="white"/>
</clipPath>
</defs>
</svg>
