<svg width="19" height="13" viewBox="0 0 19 13" fill="none" xmlns="http://www.w3.org/2000/svg">
<path d="M9.5 3.5C8.80522 3.50459 8.14021 3.78262 7.64891 4.27391C7.15762 4.76521 6.87959 5.43022 6.875 6.125C6.875 7.56175 8.06325 8.75 9.5 8.75C10.9367 8.75 12.125 7.56175 12.125 6.125C12.125 4.68825 10.9359 3.5 9.5 3.5Z" fill="white"/>
<path d="M9.50037 0C2.8215 0 0.81425 5.78988 0.795875 5.8485L0.703125 6.125L0.795 6.4015C0.81425 6.46012 2.8215 12.25 9.50037 12.25C16.1792 12.25 18.1865 6.46012 18.2049 6.4015L18.2976 6.125L18.2057 5.8485C18.1865 5.78988 16.1792 0 9.50037 0ZM9.50037 10.5C4.81825 10.5 3.00437 7.13475 2.56512 6.125C3.00612 5.11175 4.82087 1.75 9.50037 1.75C14.1825 1.75 15.9964 5.11525 16.4356 6.125C15.9946 7.13825 14.1799 10.5 9.50037 10.5Z" fill="white"/>
</svg>
