<svg width="171" height="100" viewBox="0 0 171 100" fill="none" xmlns="http://www.w3.org/2000/svg">
<circle cx="121" cy="50" r="50" fill="#39393A"/>
<g clip-path="url(#clip0_1661_7505)">
<path d="M120.5 17C116.119 17 112.769 20.35 112.769 24.7308V40.1923C112.769 44.5731 116.119 47.9231 120.5 47.9231H135.962L146.269 58.2308V47.9231C150.65 47.9231 154 44.5731 154 40.1923V24.7308C154 20.35 150.65 17 146.269 17H120.5ZM131.292 24.7308H135.719L140.069 40.1923H136.204L135.155 36.3269H131.29L130.326 40.1923H126.942L131.292 24.7308ZM133.385 27.3077C133.127 28.3385 132.838 29.596 132.578 30.3691L131.856 33.75H134.915L134.189 30.3665C133.676 29.596 133.385 28.3385 133.385 27.3077ZM94.7308 42.7692C90.35 42.7692 87 46.1192 87 50.5V65.9615C87 70.3423 90.35 73.6923 94.7308 73.6923V84L105.038 73.6923H120.5C124.881 73.6923 128.231 70.3423 128.231 65.9615V50.5H120.5C115.604 50.5 111.723 47.15 110.435 42.7692H94.7308ZM106.569 50.2578C110.95 50.2578 113.011 53.8655 113.011 57.9885C113.011 61.5962 111.772 63.8845 109.71 64.9153C110.741 65.4307 111.963 65.7038 113.251 65.9615L112.287 68.5385C110.483 68.0231 108.613 67.2191 106.809 66.4434C106.551 66.1857 106.1 66.2038 105.842 66.2038C102.75 65.9461 99.8846 63.3846 99.8846 58.2308C99.8846 53.85 102.446 50.2578 106.569 50.2578ZM106.569 53.0769C104.508 53.0769 103.508 55.3962 103.508 58.2308C103.508 61.3231 104.508 63.3846 106.569 63.3846C108.631 63.3846 109.708 61.0654 109.708 58.2308C109.708 55.3962 108.631 53.0769 106.569 53.0769Z" fill="white"/>
</g>
<circle cx="50" cy="50" r="50" fill="#454656"/>
<path d="M66.0561 47.673C65.9533 48.2632 65.3304 48.5836 64.7983 48.3501L59.2625 45.9206C58.6399 45.6463 57.9124 45.9299 57.6381 46.5541C57.3653 47.1768 57.6489 47.9042 58.2715 48.1786L63.6045 50.5195C64.1872 50.7752 64.4534 51.4541 64.2 52.0378L56.7303 69.241C55.4187 72.2634 52.1544 73.9449 48.9671 73.2421C45.7085 72.5214 42.3372 73.5855 40.036 75.9308C39.6172 76.3577 38.9514 76.4195 38.4588 76.0804L29.3543 69.8121C28.8628 69.4736 28.6845 68.8329 28.9295 68.2887C32.4247 60.5248 40.3223 57.2778 47.8035 59.3018C48.4092 59.4636 49.0375 59.1275 49.2476 58.5343C49.5176 57.772 49.0821 57.09 48.4354 56.9144C47.4234 56.6408 46.3768 56.4485 45.3267 56.3419C44.58 56.266 44.1452 55.4612 44.4874 54.7932C44.7544 54.2717 45.3004 54.0875 45.77 54.2299C46.8767 54.5654 48.0818 54.9045 49.1397 55.1451C49.9658 55.3316 50.7173 54.6533 50.6393 53.8104C50.5933 53.3127 50.2351 52.8514 49.7069 52.7238C49.6425 52.7238 46.0215 51.8951 42.0886 50.4012C38.4634 49.0298 34.9356 47.2885 31.6267 45.238C29.4469 43.8881 28.3326 41.0508 29.5476 38.3056C30.7805 35.5198 34.0668 34.3036 36.8283 35.593C38.6734 36.4544 45.7972 39.7861 52.6584 42.9894C53.2762 43.2779 54.01 43.011 54.2982 42.3945C54.5835 41.7849 54.325 41.0483 53.7033 40.7561L51.669 39.8056C51.1618 39.5686 51.2053 38.8256 51.7399 38.6594C52.8413 38.3174 54.0621 38.35 55.1937 38.8311L63.074 42.1879C65.2316 43.1064 66.4584 45.3627 66.0561 47.673Z" fill="white"/>
<path d="M68.0253 31.1982C68.0253 32.7749 66.6338 33.9888 65.1001 33.7998C63.7791 33.6457 62.7852 32.5164 62.7852 31.1982C62.7852 29.7666 63.9528 28.5781 65.4053 28.5781C66.8292 28.5781 68.0253 29.7356 68.0253 31.1982Z" fill="white"/>
<path d="M60.6909 35.0941C59.9674 35.7961 59.2262 36.4251 58.5629 36.9258C58.2129 37.1901 57.7468 37.2433 57.3432 37.0715L56.1561 36.5659C53.8826 35.5968 51.3658 35.853 49.3788 37.0351C48.7657 37.3999 47.9688 37.1884 47.6514 36.5494C44.3735 29.9505 45.9072 21.6445 51.9593 16.6944C52.3425 16.381 52.8819 16.3346 53.3162 16.5723C57.155 18.6725 60.3137 21.8985 62.3011 25.9513C62.5465 26.4517 62.4203 27.0451 62.0046 27.4164C60.2416 28.9911 59.8156 31.576 60.9271 33.6196C61.1907 34.104 61.0867 34.7098 60.6909 35.0941Z" fill="#D107FB"/>
<path d="M78.5581 28.9826C78.6857 35.4997 74.9766 41.2407 69.4376 43.9525C68.8289 44.2504 68.0941 44.0151 67.7869 43.411C67.0137 41.8906 65.715 40.6333 64.0383 39.92L62.4188 39.2301C61.5982 38.8806 61.4103 37.8042 62.062 37.1951C62.3291 36.9454 62.5911 36.6897 62.8477 36.428C63.1581 36.1116 63.616 35.9804 64.0428 36.1008C67.1844 36.9873 70.4885 34.6302 70.4885 31.198C70.4885 28.5284 68.4196 26.3254 65.7893 26.1264C65.3471 26.093 64.9621 25.8143 64.777 25.4114C63.0194 21.5866 60.329 18.3609 56.9776 15.9623C56.1506 15.3705 56.3434 14.0909 57.3121 13.781C67.7414 10.445 78.3473 18.2239 78.5581 28.9826Z" fill="white"/>
<path d="M81.0041 82.8471C78.7955 85.7138 77.2558 86.9992 75.9535 86.9992C75.6807 86.9992 75.4187 86.9422 75.1613 86.8327C72.6045 85.7294 74.425 80.6653 74.4138 76.7854C74.4082 74.6326 74.333 74.143 69.1243 78.843C66.4018 81.3039 63.107 84.4361 60.5658 83.2047C59.0921 82.4932 58.4081 80.6583 58.473 77.4271C58.4885 76.6549 59.2112 76.0981 59.9655 76.2642C60.5912 76.4021 60.951 76.9339 60.9396 77.4867C60.8759 80.5682 61.5952 80.9657 61.6371 80.9853C61.7188 81.0238 62.195 81.1702 63.6284 80.2101C67.6337 77.5275 72.1923 71.2663 75.3525 73.0372C77.3546 74.1592 76.9631 77.3465 76.5485 80.7218C76.0355 84.8652 75.8098 85.5467 79.0515 81.3429C79.4676 80.8034 80.2413 80.7033 80.7808 81.1179C81.3201 81.534 81.4201 82.3077 81.0041 82.8471Z" fill="white"/>
<path d="M69.955 49.1386L69.5258 48.9612C68.9014 48.7031 68.186 48.9944 67.9211 49.6159C65.9999 54.123 58.834 70.561 58.7811 70.6666C58.629 70.9725 58.4619 71.2673 58.2808 71.5501C57.8525 72.219 58.1441 73.1091 58.8894 73.3831C59.8786 73.7467 60.9536 74.0141 61.8728 74.0141C63.7747 74.0141 65.6026 73.1295 66.7724 71.5728C70.2294 66.9691 72.6075 61.5548 73.6509 55.9139C74.1717 53.0903 72.6183 50.2406 69.955 49.1386ZM64.6732 62.4934L66.9974 57.1176C67.2687 56.4918 67.993 56.2052 68.6188 56.4749C69.2445 56.7446 69.5312 57.4705 69.2615 58.0963L66.9358 63.4721C66.6633 64.1051 65.9293 64.3828 65.3159 64.1148C64.6902 63.8451 64.402 63.1191 64.6732 62.4934ZM62.8777 66.6439L63.0087 66.3434C63.2784 65.7177 64.0043 65.431 64.6301 65.7007C65.2543 65.972 65.5425 66.6979 65.2712 67.3221L65.1418 67.6242C64.8679 68.2556 64.1343 68.5335 63.5204 68.2653C62.8946 67.9956 62.608 67.2697 62.8777 66.6439Z" fill="white"/>
<path d="M85.7448 54.2383H84.4348V52.9283C84.4348 52.2474 83.8827 51.6953 83.2018 51.6953C82.5209 51.6953 81.9688 52.2474 81.9688 52.9283V54.2383H80.6588C79.9779 54.2383 79.4258 54.7904 79.4258 55.4713C79.4258 56.1523 79.9779 56.7043 80.6588 56.7043H81.9688V58.0144C81.9688 58.6953 82.5209 59.2474 83.2018 59.2474C83.8827 59.2474 84.4348 58.6953 84.4348 58.0144V56.7043H85.7448C86.4258 56.7043 86.9778 56.1523 86.9778 55.4713C86.9778 54.7904 86.4258 54.2383 85.7448 54.2383Z" fill="white"/>
<path d="M33.9597 15.5508H32.6496V14.2408C32.6496 13.5599 32.0976 13.0078 31.4166 13.0078C30.7357 13.0078 30.1837 13.5599 30.1837 14.2408V15.5508H28.8736C28.1927 15.5508 27.6406 16.1029 27.6406 16.7838C27.6406 17.4648 28.1927 18.0168 28.8736 18.0168H30.1837V19.3269C30.1837 20.0078 30.7357 20.5599 31.4166 20.5599C32.0976 20.5599 32.6496 20.0078 32.6496 19.3269V18.0168H33.9597C34.6406 18.0168 35.1927 17.4648 35.1927 16.7838C35.1927 16.1029 34.6406 15.5508 33.9597 15.5508Z" fill="white"/>
<path d="M20.552 31.276C20.552 30.5951 20 30.043 19.3191 30.043H18.009V28.733C18.009 28.0521 17.4569 27.5 16.776 27.5C16.0951 27.5 15.543 28.0521 15.543 28.733V30.043H14.233C13.5521 30.043 13 30.5951 13 31.276C13 31.9569 13.5521 32.509 14.233 32.509H15.543V33.8191C15.543 34.5 16.0951 35.052 16.776 35.052C17.4569 35.052 18.009 34.5 18.009 33.8191V32.509H19.3191C20 32.509 20.552 31.9569 20.552 31.276Z" fill="white"/>
<path d="M25.0222 51.7774H23.7121V50.4674C23.7121 49.7864 23.1601 49.2344 22.4791 49.2344C21.7982 49.2344 21.2462 49.7864 21.2462 50.4674V51.7774H19.9361C19.2552 51.7774 18.7031 52.3295 18.7031 53.0104C18.7031 53.6913 19.2552 54.2434 19.9361 54.2434H21.2462V55.5534C21.2462 56.2344 21.7982 56.7864 22.4791 56.7864C23.1601 56.7864 23.7121 56.2344 23.7121 55.5534V54.2434H25.0222C25.7031 54.2434 26.2552 53.6913 26.2552 53.0104C26.2552 52.3295 25.7031 51.7774 25.0222 51.7774Z" fill="white"/>
<path d="M37.4037 78.3493C37.9068 78.6956 38.0799 79.3581 37.8142 79.908C37.4286 80.706 36.9895 81.4766 36.5001 82.2133C35.43 83.8253 33.4397 84.5711 31.542 84.0582C27.4932 82.9608 23.7387 81.1283 20.385 78.6084C18.1118 76.9035 18.1604 73.4619 20.4898 71.7962C21.7323 70.9073 23.1321 70.301 24.5969 69.9946C24.9268 69.9256 25.2713 69.9965 25.549 70.1876C49.0706 86.381 25.4805 70.1404 37.4037 78.3493Z" fill="white"/>
<defs>
<clipPath id="clip0_1661_7505">
<rect width="67" height="67" fill="white" transform="translate(87 17)"/>
</clipPath>
</defs>
</svg>
