<svg width="18" height="21" viewBox="0 0 18 21" fill="none" xmlns="http://www.w3.org/2000/svg">
<path fill-rule="evenodd" clip-rule="evenodd" d="M9.05469 2.82487C7.90486 2.82512 6.77836 3.14927 5.80424 3.76018C4.83012 4.37108 4.04779 5.24403 3.54688 6.27902C3.04597 7.314 2.84673 8.46916 2.972 9.61215C3.09727 10.7551 3.54198 11.8397 4.25517 12.7416C4.96837 13.6436 5.9212 14.3263 7.00452 14.7118C8.08783 15.0972 9.2578 15.1696 10.3804 14.9208C11.503 14.672 12.5328 14.112 13.3518 13.305C14.1708 12.498 14.746 11.4766 15.0113 10.3578H9.9963C9.62171 10.3578 9.26245 10.209 8.99757 9.94408C8.73269 9.6792 8.58388 9.31994 8.58388 8.94534C8.58388 8.57075 8.73269 8.21149 8.99757 7.94662C9.26245 7.68174 9.62171 7.53293 9.9963 7.53293H16.5876C16.9622 7.53293 17.3214 7.68174 17.5863 7.94662C17.8512 8.21149 18 8.57075 18 8.94534C18 11.0138 17.2831 13.0184 15.9714 14.6178C14.6598 16.2172 12.8343 17.3126 10.8059 17.7176C8.77739 18.1225 6.67128 17.8119 4.84603 16.8387C3.02078 15.8655 1.58922 14.2899 0.795013 12.3799C0.000810646 10.47 -0.106938 8.34381 0.490108 6.36336C1.08715 4.38291 2.35209 2.67058 4.0696 1.51784C5.78711 0.365105 7.85103 -0.156787 9.91004 0.0410023C11.9691 0.238792 13.8959 1.14404 15.3625 2.60265C15.4941 2.73348 15.5985 2.88892 15.6699 3.06012C15.7414 3.23131 15.7784 3.41489 15.7789 3.60039C15.7793 3.78589 15.7433 3.96966 15.6727 4.14122C15.6022 4.31279 15.4986 4.46877 15.3677 4.60028C15.2369 4.73178 15.0815 4.83624 14.9103 4.90767C14.7391 4.9791 14.5555 5.01611 14.37 5.01659C13.9954 5.01756 13.6357 4.86967 13.3701 4.60546C12.2245 3.46336 10.6723 2.8229 9.05469 2.82487Z" fill="white"/>
</svg>
