<svg width="23" height="24" viewBox="0 0 23 24" fill="none" xmlns="http://www.w3.org/2000/svg">
<path d="M6.71414 1.10938H3.85707C2.27915 1.10938 1 2.38853 1 3.96645V6.82352C1 8.40143 2.27915 9.68059 3.85707 9.68059H6.71414C8.29206 9.68059 9.57121 8.40143 9.57121 6.82352V3.96645C9.57121 2.38853 8.29206 1.10938 6.71414 1.10938Z" stroke="#ED93FF" stroke-width="1.5197" stroke-linecap="round" stroke-linejoin="round"/>
<path d="M19.2845 1.10938H16.4274C14.8495 1.10938 13.5703 2.38853 13.5703 3.96645V6.82352C13.5703 8.40143 14.8495 9.68059 16.4274 9.68059H19.2845C20.8624 9.68059 22.1415 8.40143 22.1415 6.82352V3.96645C22.1415 2.38853 20.8624 1.10938 19.2845 1.10938Z" stroke="#ED93FF" stroke-width="1.5197" stroke-linecap="round" stroke-linejoin="round"/>
<path d="M6.71414 13.6797H3.85707C2.27915 13.6797 1 14.9588 1 16.5368V19.3938C1 20.9717 2.27915 22.2509 3.85707 22.2509H6.71414C8.29206 22.2509 9.57121 20.9717 9.57121 19.3938V16.5368C9.57121 14.9588 8.29206 13.6797 6.71414 13.6797Z" stroke="#ED93FF" stroke-width="1.5197" stroke-linecap="round" stroke-linejoin="round"/>
<path d="M6.99489 5.39393C6.99489 4.44718 6.2274 3.67969 5.28065 3.67969C4.3339 3.67969 3.56641 4.44718 3.56641 5.39393C3.56641 6.34068 4.3339 7.10817 5.28065 7.10817C6.2274 7.10817 6.99489 6.34068 6.99489 5.39393Z" fill="#ED93FF"/>
<path d="M19.573 5.39393C19.573 4.44718 18.8055 3.67969 17.8588 3.67969C16.912 3.67969 16.1445 4.44718 16.1445 5.39393C16.1445 6.34068 16.912 7.10817 17.8588 7.10817C18.8055 7.10817 19.573 6.34068 19.573 5.39393Z" fill="#ED93FF"/>
<path d="M6.99489 17.9642C6.99489 17.0175 6.2274 16.25 5.28065 16.25C4.3339 16.25 3.56641 17.0175 3.56641 17.9642C3.56641 18.911 4.3339 19.6785 5.28065 19.6785C6.2274 19.6785 6.99489 18.911 6.99489 17.9642Z" fill="#ED93FF"/>
<path d="M16.1433 14.5346C16.1433 13.5878 15.3758 12.8203 14.4291 12.8203C13.4823 12.8203 12.7148 13.5878 12.7148 14.5346C12.7148 15.4813 13.4823 16.2488 14.4291 16.2488C15.3758 16.2488 16.1433 15.4813 16.1433 14.5346Z" fill="#ED93FF"/>
<path d="M19.573 17.9642C19.573 17.0175 18.8055 16.25 17.8588 16.25C16.912 16.25 16.1445 17.0175 16.1445 17.9642C16.1445 18.911 16.912 19.6785 17.8588 19.6785C18.8055 19.6785 19.573 18.911 19.573 17.9642Z" fill="#ED93FF"/>
<path d="M22.9988 21.3939C22.9988 20.4472 22.2313 19.6797 21.2846 19.6797C20.3378 19.6797 19.5703 20.4472 19.5703 21.3939C19.5703 22.3407 20.3378 23.1082 21.2846 23.1082C22.2313 23.1082 22.9988 22.3407 22.9988 21.3939Z" fill="#ED93FF"/>
<path d="M22.9988 14.5346C22.9988 13.5878 22.2313 12.8203 21.2846 12.8203C20.3378 12.8203 19.5703 13.5878 19.5703 14.5346C19.5703 15.4813 20.3378 16.2488 21.2846 16.2488C22.2313 16.2488 22.9988 15.4813 22.9988 14.5346Z" fill="#ED93FF"/>
<path d="M16.1433 21.3939C16.1433 20.4472 15.3758 19.6797 14.4291 19.6797C13.4823 19.6797 12.7148 20.4472 12.7148 21.3939C12.7148 22.3407 13.4823 23.1082 14.4291 23.1082C15.3758 23.1082 16.1433 22.3407 16.1433 21.3939Z" fill="#ED93FF"/>
</svg>
