<svg width="22" height="22" viewBox="0 0 22 22" fill="none" xmlns="http://www.w3.org/2000/svg">
<path d="M4.58325 8.25016C4.58325 6.54836 5.25929 4.91625 6.46265 3.71289C7.66601 2.50954 9.29811 1.8335 10.9999 1.8335C12.7017 1.8335 14.3338 2.50954 15.5372 3.71289C16.7405 4.91625 17.4166 6.54836 17.4166 8.25016V9.19891C18.9713 9.42166 20.1666 10.7591 20.1666 12.3752V12.6043C20.1666 14.2314 18.7632 15.6577 17.1123 15.5817C16.4339 17.525 14.7088 18.8349 12.847 19.1667C12.4162 19.3244 11.9065 19.2502 11.4583 19.2502C11.0936 19.2502 10.7438 19.1053 10.486 18.8474C10.2281 18.5896 10.0833 18.2398 10.0833 17.8752C10.0833 17.5105 10.2281 17.1608 10.486 16.9029C10.7438 16.645 11.0936 16.5002 11.4583 16.5002C12.1852 16.5002 12.99 16.3947 13.4813 17.0584C14.6693 16.4928 15.5833 15.2984 15.5833 13.7502V8.25016C15.5833 7.03459 15.1004 5.8688 14.2408 5.00926C13.3813 4.14971 12.2155 3.66683 10.9999 3.66683C9.78434 3.66683 8.61855 4.14971 7.75901 5.00926C6.89947 5.8688 6.41659 7.03459 6.41659 8.25016V13.9793C6.41659 14.4048 6.24758 14.8128 5.94674 15.1136C5.6459 15.4145 5.23787 15.5835 4.81242 15.5835C4.02229 15.5835 3.26453 15.2696 2.70583 14.7109C2.14713 14.1522 1.83325 13.3945 1.83325 12.6043V12.3752C1.83305 11.6035 2.11096 10.8577 2.61604 10.2743C3.12112 9.69094 3.81953 9.30915 4.58325 9.19891V8.25016Z" fill="white"/>
</svg>
