<svg width="74" height="74" viewBox="0 0 74 74" fill="none" xmlns="http://www.w3.org/2000/svg">
<path d="M53.0561 34.673C52.9533 35.2632 52.3304 35.5836 51.7983 35.3501L46.2625 32.9206C45.6399 32.6463 44.9124 32.9299 44.6381 33.5541C44.3653 34.1768 44.6489 34.9042 45.2715 35.1786L50.6045 37.5195C51.1872 37.7752 51.4534 38.4541 51.2 39.0378L43.7303 56.241C42.4187 59.2634 39.1544 60.9449 35.9671 60.2421C32.7085 59.5214 29.3372 60.5855 27.036 62.9308C26.6172 63.3577 25.9514 63.4195 25.4588 63.0804L16.3543 56.8121C15.8628 56.4736 15.6845 55.8329 15.9295 55.2887C19.4247 47.5248 27.3223 44.2778 34.8035 46.3018C35.4092 46.4636 36.0375 46.1275 36.2476 45.5343C36.5176 44.772 36.0821 44.09 35.4354 43.9144C34.4234 43.6408 33.3768 43.4485 32.3267 43.3419C31.58 43.266 31.1452 42.4612 31.4874 41.7932C31.7544 41.2717 32.3004 41.0875 32.77 41.2299C33.8767 41.5654 35.0818 41.9045 36.1397 42.1451C36.9658 42.3316 37.7173 41.6533 37.6393 40.8104C37.5933 40.3127 37.2351 39.8514 36.7069 39.7238C36.6425 39.7238 33.0215 38.8951 29.0886 37.4012C25.4634 36.0298 21.9356 34.2885 18.6267 32.238C16.4469 30.8881 15.3326 28.0508 16.5476 25.3056C17.7805 22.5198 21.0668 21.3036 23.8283 22.593C25.6734 23.4544 32.7972 26.7861 39.6584 29.9894C40.2762 30.2779 41.01 30.011 41.2982 29.3945C41.5835 28.7849 41.325 28.0483 40.7033 27.7561L38.669 26.8056C38.1618 26.5686 38.2053 25.8256 38.7399 25.6594C39.8413 25.3174 41.0621 25.35 42.1937 25.8311L50.074 29.1879C52.2316 30.1064 53.4584 32.3627 53.0561 34.673Z" fill="white"/>
<path d="M55.0253 18.1982C55.0253 19.7749 53.6338 20.9888 52.1001 20.7998C50.7791 20.6457 49.7852 19.5164 49.7852 18.1982C49.7852 16.7666 50.9528 15.5781 52.4053 15.5781C53.8292 15.5781 55.0253 16.7356 55.0253 18.1982Z" fill="white"/>
<path d="M47.6909 22.0941C46.9674 22.7961 46.2262 23.4251 45.5629 23.9258C45.2129 24.1901 44.7468 24.2433 44.3432 24.0715L43.1561 23.5659C40.8826 22.5968 38.3658 22.853 36.3788 24.0351C35.7657 24.3999 34.9688 24.1884 34.6514 23.5494C31.3735 16.9505 32.9072 8.64448 38.9593 3.69435C39.3425 3.38102 39.8819 3.33463 40.3162 3.57228C44.155 5.67252 47.3137 8.89848 49.3011 12.9513C49.5465 13.4517 49.4203 14.0451 49.0046 14.4164C47.2416 15.9911 46.8156 18.576 47.9271 20.6196C48.1907 21.104 48.0867 21.7098 47.6909 22.0941Z" fill="#D107FB"/>
<path d="M65.5581 15.9826C65.6857 22.4997 61.9766 28.2407 56.4376 30.9525C55.8289 31.2504 55.0941 31.0151 54.7869 30.411C54.0137 28.8906 52.715 27.6333 51.0383 26.92L49.4188 26.2301C48.5982 25.8806 48.4103 24.8042 49.062 24.1951C49.3291 23.9454 49.5911 23.6897 49.8477 23.428C50.1581 23.1116 50.616 22.9804 51.0428 23.1008C54.1844 23.9873 57.4885 21.6302 57.4885 18.198C57.4885 15.5284 55.4196 13.3254 52.7893 13.1264C52.3471 13.093 51.9621 12.8143 51.777 12.4114C50.0194 8.58656 47.329 5.36092 43.9776 2.9623C43.1506 2.37046 43.3434 1.09093 44.3121 0.780988C54.7414 -2.55501 65.3473 5.2239 65.5581 15.9826Z" fill="white"/>
<path d="M68.0041 69.8471C65.7955 72.7138 64.2558 73.9992 62.9535 73.9992C62.6807 73.9992 62.4187 73.9422 62.1613 73.8327C59.6045 72.7294 61.425 67.6653 61.4138 63.7854C61.4082 61.6326 61.333 61.143 56.1243 65.843C53.4018 68.3039 50.107 71.4361 47.5658 70.2047C46.0921 69.4932 45.4081 67.6583 45.473 64.4271C45.4885 63.6549 46.2112 63.0981 46.9655 63.2642C47.5912 63.4021 47.951 63.9339 47.9396 64.4867C47.8759 67.5682 48.5952 67.9657 48.6371 67.9853C48.7188 68.0238 49.195 68.1702 50.6284 67.2101C54.6337 64.5275 59.1923 58.2663 62.3525 60.0372C64.3546 61.1592 63.9631 64.3465 63.5485 67.7218C63.0355 71.8652 62.8098 72.5467 66.0515 68.3429C66.4676 67.8034 67.2413 67.7033 67.7808 68.1179C68.3201 68.534 68.4201 69.3077 68.0041 69.8471Z" fill="white"/>
<path d="M56.955 36.1386L56.5258 35.9612C55.9014 35.7031 55.186 35.9944 54.9211 36.6159C52.9999 41.123 45.834 57.561 45.7811 57.6666C45.629 57.9725 45.4619 58.2673 45.2808 58.5501C44.8525 59.219 45.1441 60.1091 45.8894 60.3831C46.8786 60.7467 47.9536 61.0141 48.8728 61.0141C50.7747 61.0141 52.6026 60.1295 53.7724 58.5728C57.2294 53.9691 59.6075 48.5548 60.6509 42.9139C61.1717 40.0903 59.6183 37.2406 56.955 36.1386ZM51.6732 49.4934L53.9974 44.1176C54.2687 43.4918 54.993 43.2052 55.6188 43.4749C56.2445 43.7446 56.5312 44.4705 56.2615 45.0963L53.9358 50.4721C53.6633 51.1051 52.9293 51.3828 52.3159 51.1148C51.6902 50.8451 51.402 50.1191 51.6732 49.4934ZM49.8777 53.6439L50.0087 53.3434C50.2784 52.7177 51.0043 52.431 51.6301 52.7007C52.2543 52.972 52.5425 53.6979 52.2712 54.3221L52.1418 54.6242C51.8679 55.2556 51.1343 55.5335 50.5204 55.2653C49.8946 54.9956 49.608 54.2697 49.8777 53.6439Z" fill="white"/>
<path d="M72.7448 41.2383H71.4348V39.9283C71.4348 39.2474 70.8827 38.6953 70.2018 38.6953C69.5209 38.6953 68.9688 39.2474 68.9688 39.9283V41.2383H67.6588C66.9779 41.2383 66.4258 41.7904 66.4258 42.4713C66.4258 43.1523 66.9779 43.7043 67.6588 43.7043H68.9688V45.0144C68.9688 45.6953 69.5209 46.2474 70.2018 46.2474C70.8827 46.2474 71.4348 45.6953 71.4348 45.0144V43.7043H72.7448C73.4258 43.7043 73.9778 43.1523 73.9778 42.4713C73.9778 41.7904 73.4258 41.2383 72.7448 41.2383Z" fill="white"/>
<path d="M20.9597 2.55085H19.6496V1.2408C19.6496 0.559882 19.0976 0.0078125 18.4166 0.0078125C17.7357 0.0078125 17.1837 0.559882 17.1837 1.2408V2.55085H15.8736C15.1927 2.55085 14.6406 3.10292 14.6406 3.78383C14.6406 4.46475 15.1927 5.01682 15.8736 5.01682H17.1837V6.32687C17.1837 7.00779 17.7357 7.55986 18.4166 7.55986C19.0976 7.55986 19.6496 7.00779 19.6496 6.32687V5.01682H20.9597C21.6406 5.01682 22.1927 4.46475 22.1927 3.78383C22.1927 3.10292 21.6406 2.55085 20.9597 2.55085Z" fill="white"/>
<path d="M7.55204 18.276C7.55204 17.5951 6.99997 17.043 6.31906 17.043H5.00901V15.733C5.00901 15.0521 4.45694 14.5 3.77602 14.5C3.0951 14.5 2.54304 15.0521 2.54304 15.733V17.043H1.23299C0.55207 17.043 0 17.5951 0 18.276C0 18.9569 0.55207 19.509 1.23299 19.509H2.54304V20.8191C2.54304 21.5 3.0951 22.052 3.77602 22.052C4.45694 22.052 5.00901 21.5 5.00901 20.8191V19.509H6.31906C6.99997 19.509 7.55204 18.9569 7.55204 18.276Z" fill="white"/>
<path d="M12.0222 38.7774H10.7121V37.4674C10.7121 36.7864 10.1601 36.2344 9.47915 36.2344C8.79823 36.2344 8.24616 36.7864 8.24616 37.4674V38.7774H6.93611C6.25519 38.7774 5.70312 39.3295 5.70312 40.0104C5.70312 40.6913 6.25519 41.2434 6.93611 41.2434H8.24616V42.5534C8.24616 43.2344 8.79823 43.7864 9.47915 43.7864C10.1601 43.7864 10.7121 43.2344 10.7121 42.5534V41.2434H12.0222C12.7031 41.2434 13.2552 40.6913 13.2552 40.0104C13.2552 39.3295 12.7031 38.7774 12.0222 38.7774Z" fill="white"/>
<path d="M24.4037 65.3493C24.9068 65.6956 25.0799 66.3581 24.8142 66.908C24.4286 67.706 23.9895 68.4766 23.5001 69.2133C22.43 70.8253 20.4397 71.5711 18.542 71.0582C14.4932 69.9608 10.7387 68.1283 7.38498 65.6084C5.11182 63.9035 5.16037 60.4619 7.48979 58.7962C8.73233 57.9073 10.1321 57.301 11.5969 56.9946C11.9268 56.9256 12.2713 56.9965 12.549 57.1876C36.0706 73.381 12.4805 57.1404 24.4037 65.3493Z" fill="white"/>
</svg>
