<svg width="24" height="24" viewBox="0 0 24 24" fill="none" xmlns="http://www.w3.org/2000/svg">
<path d="M12 0C15.1826 0 18.2348 1.26428 20.4853 3.51472C22.7357 5.76515 24 8.8174 24 12C24 15.1826 22.7357 18.2348 20.4853 20.4853C18.2348 22.7357 15.1826 24 12 24C8.8174 24 5.76515 22.7357 3.51472 20.4853C1.26428 18.2348 0 15.1826 0 12C0 8.8174 1.26428 5.76515 3.51472 3.51472C5.76515 1.26428 8.8174 0 12 0ZM12 22.2857C14.7279 22.2857 17.3442 21.202 19.2731 19.2731C21.202 17.3442 22.2857 14.7279 22.2857 12C22.2857 9.27206 21.202 6.65585 19.2731 4.7269C17.3442 2.79796 14.7279 1.71429 12 1.71429C9.27206 1.71429 6.65585 2.79796 4.7269 4.7269C2.79796 6.65585 1.71429 9.27206 1.71429 12C1.71429 14.7279 2.79796 17.3442 4.7269 19.2731C6.65585 21.202 9.27206 22.2857 12 22.2857ZM13.2857 17.5714C13.2857 17.9124 13.1503 18.2394 12.9091 18.4806C12.668 18.7217 12.341 18.8571 12 18.8571C11.659 18.8571 11.332 18.7217 11.0909 18.4806C10.8497 18.2394 10.7143 17.9124 10.7143 17.5714C10.7143 17.2304 10.8497 16.9034 11.0909 16.6623C11.332 16.4212 11.659 16.2857 12 16.2857C12.341 16.2857 12.668 16.4212 12.9091 16.6623C13.1503 16.9034 13.2857 17.2304 13.2857 17.5714ZM12 5.14286C12.2273 5.14286 12.4453 5.23316 12.6061 5.39391C12.7668 5.55465 12.8571 5.77267 12.8571 6V13.7143C12.8571 13.9416 12.7668 14.1596 12.6061 14.3204C12.4453 14.4811 12.2273 14.5714 12 14.5714C11.7727 14.5714 11.5547 14.4811 11.3939 14.3204C11.2332 14.1596 11.1429 13.9416 11.1429 13.7143V6C11.1429 5.77267 11.2332 5.55465 11.3939 5.39391C11.5547 5.23316 11.7727 5.14286 12 5.14286Z" fill="white"/>
</svg>
