<svg width="11" height="18" viewBox="0 0 11 18" fill="none" xmlns="http://www.w3.org/2000/svg">
<path d="M9.66497 17.0688C9.91103 16.8227 10.0493 16.4889 10.0493 16.1409C10.0493 15.7929 9.91102 15.4591 9.66497 15.213L3.16809 8.71609L9.66497 2.21922C9.90405 1.97168 10.0363 1.64013 10.0334 1.296C10.0304 0.951868 9.89233 0.622676 9.64898 0.379327C9.40563 0.13598 9.07644 -0.0020527 8.73231 -0.00504341C8.38817 -0.00803412 8.05663 0.124258 7.80909 0.363342L0.384282 7.78815C0.138226 8.03428 -3.97121e-07 8.36806 -3.81908e-07 8.71609C-3.66695e-07 9.06412 0.138226 9.3979 0.384282 9.64403L7.80909 17.0688C8.05523 17.3149 8.389 17.4531 8.73703 17.4531C9.08506 17.4531 9.41884 17.3149 9.66497 17.0688Z" fill="#B9B9B9"/>
</svg>
