<svg width="18" height="23" viewBox="0 0 18 23" fill="none" xmlns="http://www.w3.org/2000/svg">
<path d="M9 0C10.4918 0 11.9226 0.592632 12.9775 1.64752C14.0324 2.70242 14.625 4.13316 14.625 5.625V9C15.5201 9 16.3786 9.35558 17.0115 9.98851C17.6444 10.6214 18 11.4799 18 12.375V19.125C18 20.0201 17.6444 20.8786 17.0115 21.5115C16.3786 22.1444 15.5201 22.5 14.625 22.5H3.375C2.47989 22.5 1.62145 22.1444 0.988515 21.5115C0.355579 20.8786 0 20.0201 0 19.125V12.375C0 11.4799 0.355579 10.6214 0.988515 9.98851C1.62145 9.35558 2.47989 9 3.375 9V5.625C3.375 4.13316 3.96763 2.70242 5.02252 1.64752C6.07742 0.592632 7.50816 0 9 0ZM9 13.5C8.43235 13.4998 7.88561 13.7142 7.46938 14.1002C7.05315 14.4862 6.7982 15.0152 6.75563 15.5813L6.75 15.75C6.75 16.195 6.88196 16.63 7.12919 17C7.37643 17.37 7.72783 17.6584 8.13896 17.8287C8.5501 17.999 9.0025 18.0436 9.43895 17.9568C9.87541 17.87 10.2763 17.6557 10.591 17.341C10.9057 17.0263 11.12 16.6254 11.2068 16.189C11.2936 15.7525 11.249 15.3001 11.0787 14.889C10.9084 14.4778 10.62 14.1264 10.25 13.8792C9.88002 13.632 9.44501 13.5 9 13.5ZM9 2.25C8.10489 2.25 7.24645 2.60558 6.61351 3.23851C5.98058 3.87145 5.625 4.72989 5.625 5.625V9H12.375V5.625C12.375 4.72989 12.0194 3.87145 11.3865 3.23851C10.7536 2.60558 9.89511 2.25 9 2.25Z" fill="#B9B9B9"/>
</svg>
