<svg width="216" height="56" viewBox="0 0 216 56" fill="none" xmlns="http://www.w3.org/2000/svg">
<path d="M92.1629 42.4817L91.8606 32.0297C91.8318 31.2523 91.8174 30.5901 91.8174 30.043C91.8174 29.4671 91.803 28.8769 91.7742 28.2722C91.7742 27.6388 91.7598 26.9477 91.731 26.1991C91.731 25.4217 91.7166 24.4571 91.6878 23.3054C91.2847 24.8026 90.8528 26.2855 90.3921 27.7539C89.9602 29.2224 89.5427 30.6045 89.1396 31.9002L89.1828 31.857C88.6933 33.5558 88.1894 35.2546 87.6711 36.9534C87.1529 38.6234 86.649 40.3222 86.1595 42.0498C86.1019 42.2802 85.9292 42.3953 85.6412 42.3953H79.3355C79.0475 42.3953 78.8748 42.2802 78.8172 42.0498L76.3122 31.9002C76.0818 31.0364 75.9091 30.3453 75.7939 29.827C75.6787 29.3088 75.5635 28.8193 75.4484 28.3586C75.3332 27.8691 75.218 27.322 75.1029 26.7174C74.9877 26.0839 74.8293 25.2489 74.6278 24.2123C74.599 24.8746 74.5702 25.4217 74.5414 25.8536C74.5414 26.2855 74.527 26.8181 74.4982 27.4516C74.4694 28.2002 74.4406 28.992 74.4118 29.827C74.383 30.6333 74.3542 31.3675 74.3254 32.0297L73.8935 42.4817C73.8935 42.6257 73.8503 42.7553 73.764 42.8704C73.6776 42.9568 73.5624 43 73.4184 43H65.9898C65.6442 43 65.4715 42.8128 65.4715 42.4385L67.0695 14.3218C67.0695 14.1779 67.1127 14.0627 67.1991 13.9763C67.3143 13.8899 67.4294 13.8467 67.5446 13.8467H78.8172C79.1051 13.8467 79.2779 13.9763 79.3355 14.2355L81.2358 21.3186C81.5526 22.5567 81.8693 23.9244 82.186 25.4217C82.5315 26.8901 82.8483 28.3874 83.1362 29.9134C83.5393 28.3874 83.9424 26.8469 84.3455 25.2921C84.7774 23.7085 85.1805 22.3408 85.5548 21.189V21.2322C85.9292 20.0517 86.3035 18.8856 86.6778 17.7338C87.0521 16.5821 87.412 15.416 87.7575 14.2355C87.7863 14.1491 87.8439 14.0627 87.9303 13.9763C88.0167 13.8899 88.1174 13.8467 88.2326 13.8467H99.2029C99.3468 13.8467 99.462 13.8899 99.5484 13.9763C99.6636 14.0627 99.7212 14.1779 99.7212 14.3218L101.017 42.4385C101.017 42.8128 100.844 43 100.499 43H92.6812C92.5372 43 92.4077 42.9568 92.2925 42.8704C92.2061 42.7553 92.1629 42.6257 92.1629 42.4817ZM125.086 24.9898V31.3387C125.086 31.6842 124.927 31.857 124.61 31.857H113.683V35.6577H125.949C126.266 35.6577 126.424 35.8161 126.424 36.1328V42.4817C126.424 42.8272 126.266 43 125.949 43H105.261C104.945 43 104.786 42.8272 104.786 42.4817V14.365C104.786 14.0195 104.945 13.8467 105.261 13.8467H125.301C125.647 13.8467 125.82 14.0195 125.82 14.365V20.714C125.82 21.0307 125.647 21.189 125.301 21.189H113.683V24.5147H124.61C124.927 24.5147 125.086 24.673 125.086 24.9898ZM153.877 35.5281L155.087 41.5747C155.115 41.6899 155.087 41.8051 155 41.9202C154.943 42.0066 154.871 42.0786 154.784 42.1362C154.18 42.4241 153.158 42.7265 151.718 43.0432C150.278 43.3599 148.565 43.5183 146.578 43.5183C143.641 43.5183 141.093 43.1296 138.934 42.3521C136.803 41.5459 135.047 40.4806 133.664 39.1561C132.282 37.8028 131.246 36.248 130.555 34.4916C129.893 32.7064 129.561 30.8348 129.561 28.8769C129.561 26.3431 130.022 24.1116 130.943 22.1824C131.865 20.2533 133.117 18.6408 134.701 17.3451C136.285 16.0206 138.127 15.0273 140.229 14.365C142.331 13.7028 144.577 13.3717 146.967 13.3717C148.867 13.3717 150.552 13.5156 152.02 13.8036C153.489 14.0627 154.583 14.3938 155.303 14.7969C155.533 14.9121 155.619 15.1136 155.562 15.4016L153.921 21.4914C153.863 21.6353 153.762 21.7505 153.618 21.8369C153.503 21.8945 153.374 21.8945 153.23 21.8369C152.538 21.5202 151.689 21.261 150.681 21.0595C149.702 20.8291 148.565 20.714 147.269 20.714C146.146 20.714 145.081 20.8723 144.073 21.189C143.065 21.477 142.173 21.9377 141.395 22.5711C140.647 23.2046 140.042 23.9964 139.581 24.9466C139.121 25.8968 138.89 27.0341 138.89 28.3586C138.89 30.6333 139.625 32.4904 141.093 33.9301C142.59 35.3698 144.721 36.0896 147.485 36.0896C148.551 36.0896 149.602 36.0032 150.638 35.8305C151.703 35.6289 152.553 35.3986 153.186 35.1394C153.33 35.0818 153.46 35.0962 153.575 35.1826C153.719 35.2402 153.82 35.3554 153.877 35.5281ZM180.829 35.5281L182.038 41.5747C182.067 41.6899 182.038 41.8051 181.952 41.9202C181.894 42.0066 181.822 42.0786 181.736 42.1362C181.131 42.4241 180.109 42.7265 178.669 43.0432C177.23 43.3599 175.517 43.5183 173.53 43.5183C170.593 43.5183 168.045 43.1296 165.885 42.3521C163.755 41.5459 161.998 40.4806 160.616 39.1561C159.234 37.8028 158.197 36.248 157.506 34.4916C156.844 32.7064 156.513 30.8348 156.513 28.8769C156.513 26.3431 156.974 24.1116 157.895 22.1824C158.816 20.2533 160.069 18.6408 161.653 17.3451C163.236 16.0206 165.079 15.0273 167.181 14.365C169.283 13.7028 171.529 13.3717 173.919 13.3717C175.819 13.3717 177.503 13.5156 178.972 13.8036C180.44 14.0627 181.534 14.3938 182.254 14.7969C182.485 14.9121 182.571 15.1136 182.513 15.4016L180.872 21.4914C180.815 21.6353 180.714 21.7505 180.57 21.8369C180.455 21.8945 180.325 21.8945 180.181 21.8369C179.49 21.5202 178.641 21.261 177.633 21.0595C176.654 20.8291 175.517 20.714 174.221 20.714C173.098 20.714 172.033 20.8723 171.025 21.189C170.017 21.477 169.124 21.9377 168.347 22.5711C167.598 23.2046 166.994 23.9964 166.533 24.9466C166.072 25.8968 165.842 27.0341 165.842 28.3586C165.842 30.6333 166.576 32.4904 168.045 33.9301C169.542 35.3698 171.673 36.0896 174.437 36.0896C175.502 36.0896 176.553 36.0032 177.59 35.8305C178.655 35.6289 179.504 35.3986 180.138 35.1394C180.282 35.0818 180.411 35.0962 180.527 35.1826C180.671 35.2402 180.771 35.3554 180.829 35.5281ZM202.941 36.1328H195.599C195.339 37.2269 195.052 38.3211 194.735 39.4152C194.447 40.4806 194.173 41.5459 193.914 42.6113C193.857 42.8704 193.684 43 193.396 43H185.103C184.902 43 184.758 42.928 184.672 42.784C184.585 42.6401 184.571 42.4961 184.628 42.3521L193.525 14.1923C193.583 13.9619 193.741 13.8467 194.001 13.8467H204.755C205.014 13.8467 205.172 13.9619 205.23 14.1923L214.689 42.3521C214.746 42.4961 214.732 42.6401 214.645 42.784C214.559 42.928 214.415 43 214.213 43H205.446C205.36 43 205.259 42.9712 205.144 42.9136C205.057 42.8272 205 42.7265 204.971 42.6113L202.941 36.1328ZM196.981 29.3951H201.516C201.285 28.6753 201.069 27.9555 200.868 27.2356C200.666 26.487 200.45 25.7672 200.22 25.0761C200.076 24.6155 199.903 24.126 199.702 23.6077C199.529 23.0894 199.371 22.5855 199.227 22.096L199.27 22.1392C199.212 21.9377 199.169 21.8225 199.14 21.7937C199.14 21.7361 199.155 21.7073 199.183 21.7073C199.183 21.7073 199.169 21.6929 199.14 21.6641C199.14 21.6065 199.111 21.5058 199.054 21.3618C199.025 21.5058 198.982 21.6785 198.924 21.8801C198.895 22.0816 198.867 22.2544 198.838 22.3984C198.723 22.8879 198.608 23.3629 198.492 23.8236C198.377 24.2555 198.248 24.673 198.104 25.0761H198.147C197.945 25.9112 197.758 26.631 197.585 27.2356C197.413 27.8403 197.211 28.5601 196.981 29.3951Z" fill="white"/>
<path d="M28 56C12.536 56 -3.8147e-06 43.464 -3.8147e-06 28C-3.8147e-06 12.536 12.536 0 28 0C43.464 0 56 12.536 56 28C56 43.464 43.464 56 28 56Z" fill="white"/>
<path d="M51.1562 37.3051L35.117 9.22815C34.9839 9.19585 34.7593 9.66508 34.6816 9.79123C32.8332 12.7943 31.2701 15.9874 29.4224 18.9935L29.3109 19.3374L39.6563 37.3051H51.1562Z" fill="#1F1F1F"/>
<path d="M4.92024 37.3074H16.4202L26.7656 19.3397L26.6541 18.9959L21.0349 9.23047L4.92024 37.3074Z" fill="#1F1F1F"/>
<path d="M28.037 26.692C27.93 26.6666 27.9054 26.755 27.8577 26.8189L21.9239 37.3397L27.9347 47.872L28.1139 47.9989L34.1523 37.3512L28.037 26.692Z" fill="#1F1F1F"/>
</svg>
