<svg width="125" height="30" viewBox="0 0 125 30" fill="none" xmlns="http://www.w3.org/2000/svg">
<path d="M15.293 30C7.0087 30 0.292969 23.2843 0.292969 15C0.292969 6.71573 7.0087 0 15.293 0C23.5772 0 30.293 6.71573 30.293 15C30.293 23.2843 23.5772 30 15.293 30Z" fill="white"/>
<path d="M27.6992 19.9874L19.1068 4.94616C19.0355 4.92886 18.9152 5.18023 18.8735 5.24781C17.8833 6.8566 17.0459 8.56718 16.0561 10.1776L15.9963 10.3618L21.5385 19.9874H27.6992Z" fill="#1F1F1F"/>
<path d="M2.92993 19.9943H9.09064L14.6328 10.3688L14.5731 10.1846L11.5628 4.95312L2.92993 19.9943Z" fill="#1F1F1F"/>
<path d="M15.3137 14.2993C15.2565 14.2857 15.2433 14.3331 15.2177 14.3673L12.0389 20.0034L15.2589 25.6457L15.355 25.7137L18.5898 20.0096L15.3137 14.2993Z" fill="#1F1F1F"/>
<g clip-path="url(#clip0_1661_7929)">
<path d="M52.7912 17.1013C52.7747 16.646 52.7657 16.2583 52.7657 15.9382C52.7657 15.6008 52.7616 15.2519 52.7533 14.8889C52.7442 14.5268 52.7368 14.1226 52.7277 13.6755C52.7187 13.2292 52.7063 12.6683 52.6898 11.9944C52.454 12.8712 52.2058 13.739 51.9445 14.5986C51.6831 15.4581 51.4349 16.2673 51.1991 17.0262L51.2247 17.0007C50.9386 17.9955 50.6434 18.9854 50.34 19.9711C50.0366 20.9569 49.7422 21.9558 49.4553 22.9672C49.4215 23.1024 49.3201 23.1693 49.1519 23.1693H45.4622C45.294 23.1693 45.1926 23.1016 45.1588 22.9672L43.6928 17.0262C43.5576 16.5206 43.457 16.1156 43.3894 15.812C43.3218 15.5084 43.2542 15.2181 43.1866 14.9401C43.119 14.6621 43.0522 14.342 42.9846 13.9791C42.917 13.6169 42.8238 13.1319 42.7067 12.5256C42.6894 12.9141 42.677 13.2334 42.6688 13.4866C42.6597 13.7398 42.6474 14.0517 42.6309 14.422C42.6136 14.8609 42.5971 15.3195 42.5806 15.8004C42.5633 16.2805 42.5468 16.7144 42.5303 17.1021L42.278 23.2204C42.278 23.3054 42.2524 23.3771 42.2021 23.4357C42.1518 23.4951 42.0842 23.524 41.9993 23.524H37.655C37.4522 23.524 37.3516 23.4151 37.3516 23.1957L38.2857 6.73646C38.2857 6.65232 38.3154 6.58468 38.3739 6.53436C38.4325 6.48404 38.496 6.45847 38.5636 6.45847H45.1588C45.3262 6.45847 45.4276 6.53436 45.4622 6.68614L46.5736 10.8321C46.7592 11.5572 46.9488 12.3532 47.1426 13.221C47.3355 14.0896 47.5169 14.9698 47.6851 15.8631C47.9209 14.9706 48.1616 14.064 48.4057 13.1451C48.6497 12.227 48.8814 11.4301 49.1008 10.7562V10.7818C49.3192 10.0905 49.5386 9.4083 49.7571 8.73354C49.9764 8.05959 50.1866 7.37658 50.3895 6.68531C50.4059 6.63499 50.4397 6.58385 50.4909 6.53353C50.5403 6.48321 50.5997 6.45764 50.6673 6.45764H57.0861C57.1702 6.45764 57.2411 6.48321 57.3004 6.53353C57.359 6.58385 57.3887 6.65149 57.3887 6.73563L58.1464 23.194C58.1464 23.4134 58.045 23.5223 57.843 23.5223H53.2694C53.1845 23.5223 53.1136 23.4926 53.0543 23.4341C52.9949 23.3755 52.966 23.3037 52.966 23.2188L52.7888 17.1005L52.7912 17.1013Z" fill="white"/>
<path d="M72.2488 16.6971C72.2488 16.8992 72.1565 17.0007 71.971 17.0007H65.5777V19.2254H72.7542C72.9397 19.2254 73.0321 19.3178 73.0321 19.5034V23.2196C73.0321 23.4217 72.9397 23.5231 72.7542 23.5231H60.6505C60.4642 23.5231 60.3718 23.4217 60.3718 23.2196V6.7612C60.3718 6.5591 60.4642 6.45764 60.6505 6.45764H72.375C72.5778 6.45764 72.6784 6.55828 72.6784 6.7612V10.4774C72.6784 10.663 72.5778 10.7554 72.375 10.7554H65.5777V12.7021H71.971C72.1565 12.7021 72.2488 12.7945 72.2488 12.9801V16.6963V16.6971Z" fill="white"/>
<path d="M89.8114 22.6892C89.8279 22.7568 89.8156 22.8195 89.7743 22.8789C89.7315 22.9383 89.6861 22.9845 89.635 23.0175C89.2813 23.1866 88.6835 23.3631 87.8409 23.5487C86.9982 23.7343 85.9965 23.8267 84.8339 23.8267C83.1156 23.8267 81.6282 23.5949 80.3733 23.1313C79.1184 22.6677 78.087 22.0441 77.2782 21.2605C76.4693 20.4768 75.8666 19.5661 75.4708 18.53C75.0751 17.4931 74.8772 16.4026 74.8772 15.256C74.8772 13.7729 75.146 12.467 75.686 11.3369C76.2244 10.2085 76.9574 9.25983 77.8842 8.49267C78.8109 7.72634 79.8894 7.14891 81.1195 6.76039C82.3489 6.37268 83.6623 6.17883 85.0615 6.17883C86.1729 6.17883 87.159 6.25885 88.0181 6.41888C88.8773 6.57891 89.5171 6.77688 89.9384 7.01281C90.0728 7.08045 90.1239 7.19841 90.0901 7.36669L89.1296 10.9319C89.0958 11.0169 89.0414 11.0796 88.9655 11.1216C88.8896 11.1637 88.8088 11.1686 88.7247 11.134C88.3207 10.9484 87.8277 10.7925 87.2464 10.6663C86.6651 10.5401 85.9956 10.4766 85.2379 10.4766C84.5808 10.4766 83.9566 10.5648 83.3671 10.7422C82.7776 10.9187 82.2598 11.1934 81.8129 11.5638C81.3669 11.935 81.0082 12.3977 80.7394 12.9546C80.4698 13.5114 80.3354 14.1771 80.3354 14.9525C80.3354 16.2838 80.7683 17.3711 81.6365 18.2141C82.5047 19.0572 83.7464 19.4778 85.3641 19.4778C85.9874 19.4778 86.6066 19.4234 87.2217 19.3129C87.8368 19.204 88.329 19.0728 88.7 18.921C88.7841 18.888 88.8649 18.8913 88.9408 18.9334C89.0158 18.9755 89.0702 19.0473 89.1048 19.1487L89.8123 22.6884L89.8114 22.6892Z" fill="white"/>
<path d="M105.58 22.6892C105.597 22.7568 105.584 22.8195 105.543 22.8789C105.5 22.9383 105.455 22.9845 105.404 23.0175C105.05 23.1866 104.452 23.3631 103.61 23.5487C102.767 23.7343 101.765 23.8267 100.603 23.8267C98.8844 23.8267 97.397 23.5949 96.1421 23.1313C94.8872 22.6677 93.8558 22.0441 93.047 21.2605C92.2381 20.4768 91.6354 19.5661 91.2396 18.53C90.8439 17.4931 90.646 16.4026 90.646 15.256C90.646 13.7729 90.9148 12.467 91.4548 11.3369C91.9932 10.2085 92.7262 9.25983 93.653 8.49267C94.5797 7.72634 95.6582 7.14891 96.8883 6.76039C98.1177 6.37268 99.4311 6.17883 100.83 6.17883C101.942 6.17883 102.928 6.25885 103.787 6.41888C104.646 6.57891 105.286 6.77688 105.707 7.01281C105.842 7.08045 105.893 7.19841 105.859 7.36669L104.898 10.9319C104.865 11.0169 104.81 11.0796 104.734 11.1216C104.658 11.1637 104.578 11.1686 104.494 11.134C104.09 10.9484 103.596 10.7925 103.015 10.6663C102.434 10.5401 101.764 10.4766 101.007 10.4766C100.35 10.4766 99.7254 10.5648 99.1359 10.7422C98.5464 10.9187 98.0286 11.1934 97.5817 11.5638C97.1357 11.935 96.777 12.3977 96.5082 12.9546C96.2386 13.5114 96.1042 14.1771 96.1042 14.9525C96.1042 16.2838 96.5371 17.3711 97.4053 18.2141C98.2735 19.0572 99.5152 19.4778 101.133 19.4778C101.756 19.4778 102.375 19.4234 102.99 19.3129C103.606 19.204 104.098 19.0728 104.469 18.921C104.553 18.888 104.634 18.8913 104.71 18.9334C104.785 18.9755 104.839 19.0473 104.874 19.1487L105.581 22.6884L105.58 22.6892Z" fill="white"/>
<path d="M124.685 23.1437L119.151 6.65974C119.117 6.52528 119.024 6.45764 118.872 6.45764H112.58C112.429 6.45764 112.335 6.52528 112.302 6.65974L107.097 23.1437C107.063 23.2278 107.071 23.312 107.122 23.3969C107.173 23.4819 107.256 23.5231 107.374 23.5231H112.226C112.394 23.5231 112.495 23.4473 112.529 23.2955C112.529 23.2955 115.079 12.7161 115.126 12.5545L115.536 10.8568C115.57 10.941 115.647 11.2948 115.647 11.2948C115.656 11.3278 115.663 11.3567 115.673 11.393C115.75 11.6471 118.767 22.4904 118.949 23.1363L118.998 23.2955C119.015 23.3631 119.053 23.4184 119.112 23.4596C119.171 23.5017 119.225 23.5231 119.276 23.5231H124.406C124.523 23.5231 124.608 23.4811 124.658 23.3969C124.709 23.3128 124.718 23.2287 124.684 23.1437H124.685Z" fill="white"/>
</g>
<defs>
<clipPath id="clip0_1661_7929">
<rect width="87.3529" height="17.6471" fill="white" transform="translate(37.3516 6.17969)"/>
</clipPath>
</defs>
</svg>
