<svg width="21" height="21" viewBox="0 0 21 21" fill="none" xmlns="http://www.w3.org/2000/svg">
<g clip-path="url(#clip0_1661_7687)">
<path d="M10.752 0C14.0542 0 17.1119 1.46475 19.1394 3.9312C19.1972 4.00111 19.2403 4.08193 19.2662 4.16885C19.2921 4.25576 19.3002 4.347 19.2901 4.43713C19.28 4.52725 19.2519 4.61443 19.2074 4.69347C19.163 4.7725 19.103 4.84179 19.0312 4.8972C18.8851 5.01176 18.7001 5.06487 18.5154 5.04526C18.3307 5.02566 18.161 4.93489 18.0422 4.7922C17.1556 3.71823 16.0417 2.85446 14.7808 2.26325C13.52 1.67203 12.1435 1.3681 10.7509 1.3734C5.5902 1.3734 1.40595 5.46 1.40595 10.5C1.40595 15.54 5.5902 19.6266 10.7509 19.6266C12.1636 19.6321 13.5594 19.3195 14.8347 18.7118C16.1101 18.1042 17.2321 17.2171 18.1177 16.1164C18.2346 15.9723 18.403 15.8793 18.5872 15.8571C18.7714 15.835 18.9571 15.8854 19.1047 15.9978C19.1772 16.0523 19.2379 16.1207 19.2833 16.1991C19.3288 16.2775 19.358 16.3643 19.3693 16.4542C19.3805 16.5441 19.3736 16.6353 19.3489 16.7225C19.3242 16.8097 19.2822 16.8911 19.2255 16.9617C17.2011 19.4922 14.1025 21 10.752 21C4.81215 21 0 16.2991 0 10.5C0 4.70085 4.8132 0 10.752 0ZM17.9529 7.518L20.7942 10.3603C21.0693 10.6344 21.0745 11.0744 20.8068 11.3432L18.0306 14.1183C17.9655 14.1824 17.8884 14.233 17.8037 14.2671C17.719 14.3013 17.6284 14.3184 17.537 14.3174C17.4457 14.3164 17.3554 14.2974 17.2715 14.2614C17.1875 14.2255 17.1115 14.1733 17.0478 14.1078C16.9821 14.0441 16.9297 13.9681 16.8935 13.8841C16.8574 13.8001 16.8382 13.7097 16.8371 13.6183C16.836 13.5268 16.8531 13.4361 16.8873 13.3512C16.9214 13.2664 16.9721 13.1891 17.0362 13.1239L18.6606 11.4996H7.8351C7.74374 11.501 7.65301 11.4843 7.56813 11.4505C7.48325 11.4167 7.40589 11.3664 7.3405 11.3026C7.27512 11.2388 7.223 11.1626 7.18715 11.0786C7.1513 10.9946 7.13242 10.9043 7.1316 10.8129C7.1316 10.4328 7.4466 10.1251 7.8351 10.1251H18.6175L16.9816 8.48925C16.9161 8.42561 16.8638 8.34965 16.8278 8.26573C16.7917 8.18181 16.7726 8.09159 16.7715 8.00025C16.7704 7.90892 16.7874 7.81827 16.8215 7.73352C16.8556 7.64878 16.9061 7.57161 16.9701 7.50645C17.0353 7.44244 17.1124 7.39194 17.1972 7.35785C17.2819 7.32377 17.3726 7.30678 17.4639 7.30785C17.5552 7.30892 17.6455 7.32804 17.7294 7.36411C17.8133 7.40017 17.8893 7.45247 17.9529 7.518Z" fill="white"/>
<path d="M10.752 0C14.0542 0 17.1119 1.46475 19.1394 3.9312C19.1972 4.00111 19.2403 4.08193 19.2662 4.16885C19.2921 4.25576 19.3002 4.347 19.2901 4.43713C19.28 4.52725 19.2519 4.61443 19.2074 4.69347C19.163 4.7725 19.103 4.84179 19.0312 4.8972C18.8851 5.01176 18.7001 5.06487 18.5154 5.04526C18.3307 5.02566 18.161 4.93489 18.0422 4.7922C17.1556 3.71823 16.0417 2.85446 14.7808 2.26325C13.52 1.67203 12.1435 1.3681 10.7509 1.3734C5.5902 1.3734 1.40595 5.46 1.40595 10.5C1.40595 15.54 5.5902 19.6266 10.7509 19.6266C12.1636 19.6321 13.5594 19.3195 14.8347 18.7118C16.1101 18.1042 17.2321 17.2171 18.1177 16.1164C18.2346 15.9723 18.403 15.8793 18.5872 15.8571C18.7714 15.835 18.9571 15.8854 19.1047 15.9978C19.1772 16.0523 19.2379 16.1207 19.2833 16.1991C19.3288 16.2775 19.358 16.3643 19.3693 16.4542C19.3805 16.5441 19.3736 16.6353 19.3489 16.7225C19.3242 16.8097 19.2822 16.8911 19.2255 16.9617C17.2011 19.4922 14.1025 21 10.752 21C4.81215 21 0 16.2991 0 10.5C0 4.70085 4.8132 0 10.752 0ZM17.9529 7.518L20.7942 10.3603C21.0693 10.6344 21.0745 11.0744 20.8068 11.3432L18.0306 14.1183C17.9655 14.1824 17.8884 14.233 17.8037 14.2671C17.719 14.3013 17.6284 14.3184 17.537 14.3174C17.4457 14.3164 17.3554 14.2974 17.2715 14.2614C17.1875 14.2255 17.1115 14.1733 17.0478 14.1078C16.9821 14.0441 16.9297 13.9681 16.8935 13.8841C16.8574 13.8001 16.8382 13.7097 16.8371 13.6183C16.836 13.5268 16.8531 13.4361 16.8873 13.3512C16.9214 13.2664 16.9721 13.1891 17.0362 13.1239L18.6606 11.4996H7.8351C7.74374 11.501 7.65301 11.4843 7.56813 11.4505C7.48325 11.4167 7.40589 11.3664 7.3405 11.3026C7.27512 11.2388 7.223 11.1626 7.18715 11.0786C7.1513 10.9946 7.13242 10.9043 7.1316 10.8129C7.1316 10.4328 7.4466 10.1251 7.8351 10.1251H18.6175L16.9816 8.48925C16.9161 8.42561 16.8638 8.34965 16.8278 8.26573C16.7917 8.18181 16.7726 8.09159 16.7715 8.00025C16.7704 7.90892 16.7874 7.81827 16.8215 7.73352C16.8556 7.64878 16.9061 7.57161 16.9701 7.50645C17.0353 7.44244 17.1124 7.39194 17.1972 7.35785C17.2819 7.32377 17.3726 7.30678 17.4639 7.30785C17.5552 7.30892 17.6455 7.32804 17.7294 7.36411C17.8133 7.40017 17.8893 7.45247 17.9529 7.518Z" fill="white"/>
</g>
<defs>
<clipPath id="clip0_1661_7687">
<rect width="21" height="21" fill="white"/>
</clipPath>
</defs>
</svg>
