<svg width="19" height="19" viewBox="0 0 19 19" fill="none" xmlns="http://www.w3.org/2000/svg">
<path d="M9.45614 0C7.5859 0 5.75765 0.554593 4.20259 1.59365C2.64754 2.6327 1.43552 4.10955 0.71981 5.83743C0.00409704 7.56531 -0.183166 9.46663 0.181701 11.3009C0.546569 13.1353 1.44718 14.8202 2.76964 16.1426C4.09211 17.4651 5.77703 18.3657 7.61134 18.7306C9.44565 19.0954 11.347 18.9082 13.0749 18.1925C14.8027 17.4768 16.2796 16.2647 17.3186 14.7097C18.3577 13.1546 18.9123 11.3264 18.9123 9.45614C18.9093 6.94912 17.9121 4.54562 16.1394 2.77289C14.3667 1.00016 11.9632 0.00294424 9.45614 0ZM9.45614 17.7998C7.80592 17.7998 6.19276 17.3104 4.82066 16.3936C3.44855 15.4768 2.37912 14.1737 1.74761 12.6491C1.1161 11.1245 0.95087 9.44688 1.27281 7.82837C1.59475 6.20986 2.38941 4.72317 3.55629 3.55629C4.72317 2.38941 6.20987 1.59475 7.82838 1.27281C9.44689 0.950866 11.1245 1.1161 12.6491 1.74761C14.1737 2.37912 15.4768 3.44855 16.3936 4.82065C17.3104 6.19276 17.7998 7.80592 17.7998 9.45614C17.7973 11.6683 16.9175 13.7891 15.3533 15.3533C13.7891 16.9175 11.6683 17.7973 9.45614 17.7998ZM10.3832 5.00619V13.9061C10.3832 14.0536 10.3246 14.1951 10.2203 14.2994C10.116 14.4037 9.9745 14.4623 9.82697 14.4623C9.67945 14.4623 9.53796 14.4037 9.43365 14.2994C9.32933 14.1951 9.27073 14.0536 9.27073 13.9061V6.04544L7.91071 6.95304C7.78778 7.03492 7.63735 7.06461 7.49252 7.03557C7.3477 7.00654 7.22034 6.92116 7.13846 6.79822C7.05659 6.67528 7.0269 6.52486 7.05593 6.38003C7.08497 6.23521 7.17035 6.10785 7.29328 6.02597L9.51826 4.54265C9.60208 4.48673 9.69952 4.45462 9.80017 4.44977C9.90082 4.44491 10.0009 4.46749 10.0897 4.51509C10.1785 4.56268 10.2528 4.63352 10.3044 4.72001C10.3561 4.80651 10.3834 4.90542 10.3832 5.00619Z" fill="white"/>
</svg>
