<svg width="19" height="19" viewBox="0 0 19 19" fill="none" xmlns="http://www.w3.org/2000/svg">
<path d="M9.45614 0C7.5859 0 5.75765 0.554593 4.20259 1.59365C2.64754 2.6327 1.43552 4.10955 0.71981 5.83743C0.00409704 7.56531 -0.183166 9.46663 0.181701 11.3009C0.546569 13.1353 1.44718 14.8202 2.76964 16.1426C4.09211 17.4651 5.77703 18.3657 7.61134 18.7306C9.44565 19.0954 11.347 18.9082 13.0749 18.1925C14.8027 17.4768 16.2796 16.2647 17.3186 14.7097C18.3577 13.1546 18.9123 11.3264 18.9123 9.45614C18.9093 6.94912 17.9121 4.54562 16.1394 2.77289C14.3667 1.00016 11.9632 0.00294424 9.45614 0ZM9.45614 17.7998C7.80592 17.7998 6.19276 17.3104 4.82066 16.3936C3.44855 15.4768 2.37912 14.1737 1.74761 12.6491C1.1161 11.1245 0.95087 9.44688 1.27281 7.82837C1.59475 6.20986 2.38941 4.72317 3.55629 3.55629C4.72317 2.38941 6.20987 1.59475 7.82838 1.27281C9.44689 0.950866 11.1245 1.1161 12.6491 1.74761C14.1737 2.37912 15.4768 3.44855 16.3936 4.82065C17.3104 6.19276 17.7998 7.80592 17.7998 9.45614C17.7973 11.6683 16.9175 13.7891 15.3533 15.3533C13.7891 16.9175 11.6683 17.7973 9.45614 17.7998ZM11.6811 8.90453L8.34366 13.3545H11.6811C11.8286 13.3545 11.9701 13.4131 12.0744 13.5174C12.1788 13.6217 12.2374 13.7632 12.2374 13.9107C12.2374 14.0582 12.1788 14.1997 12.0744 14.304C11.9701 14.4084 11.8286 14.467 11.6811 14.467H7.23117C7.12787 14.467 7.02661 14.4382 6.93873 14.3839C6.85086 14.3296 6.77985 14.2519 6.73365 14.1595C6.68745 14.0671 6.6679 13.9637 6.67717 13.8608C6.68645 13.7579 6.72419 13.6596 6.78617 13.577L10.7883 8.24075C10.9309 8.04844 11.0304 7.82772 11.08 7.59357C11.1297 7.35942 11.1285 7.11733 11.0764 6.88371C11.0242 6.65009 10.9224 6.43042 10.7779 6.23961C10.6334 6.0488 10.4495 5.89131 10.2388 5.77783C10.028 5.66436 9.79531 5.59755 9.55645 5.58195C9.3176 5.56635 9.07818 5.60232 8.85445 5.68741C8.63072 5.7725 8.42792 5.90473 8.2598 6.07512C8.09169 6.24551 7.9622 6.45007 7.88012 6.67492C7.85708 6.74543 7.82017 6.81062 7.77157 6.86665C7.72296 6.92269 7.66364 6.96843 7.59709 7.0012C7.53055 7.03396 7.45812 7.05309 7.38407 7.05745C7.31002 7.06181 7.23585 7.05131 7.16592 7.02658C7.09598 7.00184 7.0317 6.96337 6.97686 6.91343C6.92202 6.86349 6.87772 6.80308 6.84657 6.73576C6.81541 6.66844 6.79804 6.59557 6.79547 6.52144C6.7929 6.4473 6.80519 6.37341 6.8316 6.30409C6.96695 5.92813 7.18172 5.58575 7.4613 5.30026C7.74087 5.01476 8.07868 4.79287 8.45172 4.64967C8.82477 4.50647 9.22429 4.44534 9.62308 4.47044C10.0219 4.49554 10.4106 4.60627 10.7627 4.7951C11.1149 4.98393 11.4222 5.24643 11.6638 5.56472C11.9054 5.88301 12.0755 6.24961 12.1627 6.63958C12.2498 7.02954 12.2519 7.4337 12.1688 7.82455C12.0857 8.2154 11.9194 8.58375 11.6811 8.90453Z" fill="white"/>
</svg>
