<svg width="19" height="19" viewBox="0 0 19 19" fill="none" xmlns="http://www.w3.org/2000/svg">
<path d="M1.18202 9.45614C1.18202 4.88646 4.88646 1.18202 9.45614 1.18202C14.0258 1.18202 17.7303 4.88646 17.7303 9.45614C17.7303 14.0258 14.0258 17.7303 9.45614 17.7303C4.88646 17.7303 1.18202 14.0258 1.18202 9.45614ZM9.45614 0C4.23399 0 0 4.23399 0 9.45614C0 14.6783 4.23399 18.9123 9.45614 18.9123C14.6783 18.9123 18.9123 14.6783 18.9123 9.45614C18.9123 4.23399 14.6783 0 9.45614 0ZM11.4262 5.05825C11.4262 4.19774 10.3072 3.86283 9.83439 4.5815L5.57676 11.0542C5.50252 11.1671 5.46021 11.298 5.45433 11.433C5.44845 11.568 5.47921 11.702 5.54336 11.821C5.60751 11.9399 5.70264 12.0392 5.81868 12.1085C5.93471 12.1777 6.06732 12.2142 6.20244 12.2142H10.2434V13.5932C10.2434 13.7499 10.3056 13.9003 10.4165 14.0111C10.5273 14.1219 10.6776 14.1842 10.8344 14.1842C10.9911 14.1842 11.1414 14.1219 11.2523 14.0111C11.3631 13.9003 11.4254 13.7499 11.4254 13.5932V12.2142H12.2142C12.3709 12.2142 12.5213 12.1519 12.6321 12.0411C12.7429 11.9302 12.8052 11.7799 12.8052 11.6232C12.8052 11.4664 12.7429 11.3161 12.6321 11.2053C12.5213 11.0944 12.3709 11.0322 12.2142 11.0322H11.4262V5.05825ZM10.2442 6.11103V11.0322H7.00542L10.2442 6.11103Z" fill="white"/>
</svg>
