<svg width="19" height="19" viewBox="0 0 19 19" fill="none" xmlns="http://www.w3.org/2000/svg">
<path d="M9.45614 0C7.5859 0 5.75765 0.554593 4.20259 1.59365C2.64754 2.6327 1.43552 4.10955 0.71981 5.83743C0.00409704 7.56531 -0.183166 9.46663 0.181701 11.3009C0.546569 13.1353 1.44718 14.8202 2.76964 16.1426C4.09211 17.4651 5.77703 18.3657 7.61134 18.7306C9.44565 19.0954 11.347 18.9082 13.0749 18.1925C14.8027 17.4768 16.2796 16.2647 17.3186 14.7097C18.3577 13.1546 18.9123 11.3264 18.9123 9.45614C18.9093 6.94912 17.9121 4.54562 16.1394 2.77289C14.3667 1.00016 11.9632 0.00294424 9.45614 0ZM9.45614 17.7998C7.80592 17.7998 6.19276 17.3104 4.82066 16.3936C3.44855 15.4768 2.37912 14.1737 1.74761 12.6491C1.1161 11.1245 0.95087 9.44688 1.27281 7.82837C1.59475 6.20986 2.38941 4.72317 3.55629 3.55629C4.72317 2.38941 6.20987 1.59475 7.82838 1.27281C9.44689 0.950866 11.1245 1.1161 12.6491 1.74761C14.1737 2.37912 15.4768 3.44855 16.3936 4.82065C17.3104 6.19276 17.7998 7.80592 17.7998 9.45614C17.7973 11.6683 16.9175 13.7891 15.3533 15.3533C13.7891 16.9175 11.6683 17.7973 9.45614 17.7998ZM12.2374 11.6811C12.2373 12.3073 12.0508 12.9193 11.7016 13.4391C11.3523 13.9588 10.8562 14.3628 10.2764 14.5994C9.69661 14.836 9.0595 14.8946 8.44631 14.7676C7.83311 14.6407 7.27162 14.334 6.83345 13.8866C6.73031 13.7811 6.67329 13.639 6.67494 13.4915C6.6766 13.344 6.73678 13.2031 6.84226 13.1C6.94774 12.9969 7.08988 12.9398 7.2374 12.9415C7.38492 12.9431 7.52574 13.0033 7.62888 13.1088C7.86428 13.349 8.15539 13.5272 8.47632 13.6276C8.79725 13.728 9.13803 13.7475 9.46833 13.6844C9.79862 13.6213 10.1082 13.4775 10.3695 13.2657C10.6307 13.054 10.8356 12.781 10.9658 12.471C11.0961 12.1609 11.1476 11.8235 11.1159 11.4887C11.0842 11.154 10.9702 10.8322 10.784 10.5522C10.5979 10.2721 10.3454 10.0424 10.049 9.88354C9.75265 9.72467 9.42159 9.64154 9.08531 9.64155C8.98354 9.64162 8.88369 9.61377 8.79665 9.56102C8.70961 9.50827 8.63871 9.43265 8.59167 9.34239C8.54463 9.25214 8.52325 9.15071 8.52987 9.04915C8.53649 8.94759 8.57084 8.84978 8.62919 8.7664L10.6131 5.93326H7.23117C7.08364 5.93326 6.94216 5.87466 6.83785 5.77034C6.73353 5.66603 6.67493 5.52454 6.67493 5.37702C6.67493 5.2295 6.73353 5.08801 6.83785 4.9837C6.94216 4.87938 7.08364 4.82078 7.23117 4.82078H11.6811C11.7829 4.82071 11.8827 4.84856 11.9698 4.90131C12.0568 4.95406 12.1277 5.02968 12.1748 5.11993C12.2218 5.21019 12.2432 5.31162 12.2366 5.41318C12.2299 5.51474 12.1956 5.61254 12.1372 5.69593L10.0485 8.67925C10.6838 8.88404 11.2379 9.28488 11.6311 9.82422C12.0244 10.3636 12.2366 11.0136 12.2374 11.6811Z" fill="white"/>
</svg>
