<svg width="21" height="21" viewBox="0 0 21 21" fill="none" xmlns="http://www.w3.org/2000/svg">
<g clip-path="url(#clip0_1661_7684)">
<path d="M3.9375 11.1562C4.2856 11.1562 4.61944 11.018 4.86558 10.7718C5.11172 10.5257 5.25 10.1918 5.25 9.84375C5.25 9.49565 5.11172 9.16181 4.86558 8.91567C4.61944 8.66953 4.2856 8.53125 3.9375 8.53125C3.5894 8.53125 3.25556 8.66953 3.00942 8.91567C2.76328 9.16181 2.625 9.49565 2.625 9.84375C2.625 10.1918 2.76328 10.5257 3.00942 10.7718C3.25556 11.018 3.5894 11.1562 3.9375 11.1562Z" fill="white"/>
<path fill-rule="evenodd" clip-rule="evenodd" d="M5.90631 3.9375C7.95381 3.9375 9.76506 4.97962 10.8282 6.5625H17.7319C17.9383 6.56243 18.1417 6.611 18.3257 6.70427C18.5097 6.79754 18.6692 6.93288 18.7911 7.09931L20.7467 9.77681C20.9045 9.99006 20.9932 10.2465 21.0009 10.5116C21.0087 10.7767 20.9351 11.0379 20.7901 11.2599L19.1363 13.8193C19.0409 13.9673 18.9165 14.0944 18.7708 14.1932C18.625 14.292 18.4609 14.3603 18.2881 14.3942C18.1153 14.428 17.9374 14.4266 17.7652 14.3901C17.593 14.3535 17.4299 14.2826 17.2857 14.1816L15.7763 13.125L14.2144 14.1908C13.996 14.3403 13.7376 14.4203 13.4729 14.4203C13.2082 14.4203 12.9497 14.3403 12.7313 14.1908L11.1694 13.125H10.8308C9.77031 14.7131 7.96956 15.75 5.90894 15.75C4.3425 15.75 2.84022 15.1277 1.73259 14.0201C0.624949 12.9125 0.00268555 11.4102 0.00268555 9.84375C0.00268555 8.27732 0.624949 6.77504 1.73259 5.6674C2.84022 4.55976 4.3425 3.9375 5.90894 3.9375H5.90631ZM10.8282 11.8125C10.6123 11.8123 10.3997 11.8654 10.2092 11.9671C10.0187 12.0687 9.85623 12.2158 9.73619 12.3953C8.90931 13.629 7.50494 14.4427 5.91681 14.4427C3.38369 14.4427 1.32306 12.3821 1.32306 9.849C1.32306 7.31588 3.38369 5.25525 5.91681 5.25525C7.50494 5.25525 8.90931 6.06375 9.73619 7.30275C9.98031 7.66631 10.3898 7.8855 10.8282 7.8855H17.7319L19.6876 10.563L18.0338 13.1224L16.5244 12.0658C16.3054 11.9124 16.0447 11.8296 15.7773 11.8284C15.5099 11.8273 15.2486 11.9078 15.0282 12.0592L13.4663 13.125L11.9044 12.0592C11.6857 11.9094 11.4267 11.8293 11.1616 11.8296H10.8229L10.8282 11.8125Z" fill="white"/>
</g>
<defs>
<clipPath id="clip0_1661_7684">
<rect width="21" height="21" fill="white"/>
</clipPath>
</defs>
</svg>
