<svg width="20" height="20" viewBox="0 0 20 20" fill="none" xmlns="http://www.w3.org/2000/svg">
<path d="M1.06798 7.3125C0.950108 7.42635 0.792231 7.48935 0.628358 7.48792C0.464485 7.4865 0.307727 7.42077 0.191847 7.30489C0.0759673 7.18901 0.0102367 7.03225 0.00881269 6.86838C0.00738868 6.7045 0.0703852 6.54663 0.184234 6.42875L3.93423 2.67875C4.05144 2.56158 4.21038 2.49576 4.37611 2.49576C4.54184 2.49576 4.70078 2.56158 4.81798 2.67875L8.56798 6.42875C8.68183 6.54663 8.74483 6.7045 8.74341 6.86838C8.74198 7.03225 8.67625 7.18901 8.56037 7.30489C8.44449 7.42077 8.28773 7.4865 8.12386 7.48792C7.95999 7.48935 7.80211 7.42635 7.68423 7.3125L4.99673 4.625L4.99673 14.3625C4.99673 15.1913 5.32597 15.9862 5.91203 16.5722C6.49808 17.1583 7.29293 17.4875 8.12173 17.4875L10.6217 17.4875C10.7875 17.4875 10.9465 17.5533 11.0637 17.6706C11.1809 17.7878 11.2467 17.9467 11.2467 18.1125C11.2467 18.2783 11.1809 18.4372 11.0637 18.5544C10.9465 18.6717 10.7875 18.7375 10.6217 18.7375L8.12173 18.7375C5.70923 18.7375 3.74673 16.775 3.74673 14.3625L3.74673 4.625L1.05923 7.3125L1.06798 7.3125ZM9.37548 2.5C9.20972 2.5 9.05075 2.43415 8.93354 2.31694C8.81633 2.19973 8.75048 2.04076 8.75048 1.875C8.75048 1.70924 8.81633 1.55027 8.93354 1.43306C9.05075 1.31585 9.20972 1.25 9.37548 1.25L11.8755 1.25C14.288 1.25 16.2505 3.2125 16.2505 5.625V15.3625L18.938 12.675C19.0559 12.5612 19.2137 12.4982 19.3776 12.4996C19.5415 12.501 19.6982 12.5667 19.8141 12.6826C19.93 12.7985 19.9957 12.9553 19.9972 13.1191C19.9986 13.283 19.9356 13.4409 19.8217 13.5588L16.0717 17.3088C15.9545 17.4259 15.7956 17.4917 15.6299 17.4917C15.4641 17.4917 15.3052 17.4259 15.188 17.3088L11.438 13.5588C11.3241 13.4409 11.2611 13.283 11.2626 13.1191C11.264 12.9553 11.3297 12.7985 11.4456 12.6826C11.5615 12.5667 11.7182 12.501 11.8821 12.4996C12.046 12.4982 12.2039 12.5612 12.3217 12.675L15.0092 15.3625V5.625C15.0092 4.7962 14.68 4.00134 14.0939 3.41529C13.5079 2.82924 12.713 2.5 11.8842 2.5L9.38423 2.5L9.37548 2.5Z" fill="white"/>
</svg>
