<svg width="21" height="21" viewBox="0 0 21 21" fill="none" xmlns="http://www.w3.org/2000/svg">
<path d="M6.78125 2.40625H4.59375C3.38563 2.40625 2.40625 3.38563 2.40625 4.59375V6.78125C2.40625 7.98937 3.38563 8.96875 4.59375 8.96875H6.78125C7.98937 8.96875 8.96875 7.98937 8.96875 6.78125V4.59375C8.96875 3.38563 7.98937 2.40625 6.78125 2.40625Z" stroke="white" stroke-width="1.3125" stroke-linecap="round" stroke-linejoin="round"/>
<path d="M16.4062 2.40625H14.2188C13.0106 2.40625 12.0312 3.38563 12.0312 4.59375V6.78125C12.0312 7.98937 13.0106 8.96875 14.2188 8.96875H16.4062C17.6144 8.96875 18.5938 7.98937 18.5938 6.78125V4.59375C18.5938 3.38563 17.6144 2.40625 16.4062 2.40625Z" stroke="white" stroke-width="1.3125" stroke-linecap="round" stroke-linejoin="round"/>
<path d="M6.78125 12.0312H4.59375C3.38563 12.0312 2.40625 13.0106 2.40625 14.2188V16.4062C2.40625 17.6144 3.38563 18.5938 4.59375 18.5938H6.78125C7.98937 18.5938 8.96875 17.6144 8.96875 16.4062V14.2188C8.96875 13.0106 7.98937 12.0312 6.78125 12.0312Z" stroke="white" stroke-width="1.3125" stroke-linecap="round" stroke-linejoin="round"/>
<path d="M7 5.6875C7 4.96263 6.41237 4.375 5.6875 4.375C4.96263 4.375 4.375 4.96263 4.375 5.6875C4.375 6.41237 4.96263 7 5.6875 7C6.41237 7 7 6.41237 7 5.6875Z" fill="white"/>
<path d="M16.625 5.6875C16.625 4.96263 16.0374 4.375 15.3125 4.375C14.5876 4.375 14 4.96263 14 5.6875C14 6.41237 14.5876 7 15.3125 7C16.0374 7 16.625 6.41237 16.625 5.6875Z" fill="white"/>
<path d="M7 15.3125C7 14.5876 6.41237 14 5.6875 14C4.96263 14 4.375 14.5876 4.375 15.3125C4.375 16.0374 4.96263 16.625 5.6875 16.625C6.41237 16.625 7 16.0374 7 15.3125Z" fill="white"/>
<path d="M14 12.6875C14 11.9626 13.4124 11.375 12.6875 11.375C11.9626 11.375 11.375 11.9626 11.375 12.6875C11.375 13.4124 11.9626 14 12.6875 14C13.4124 14 14 13.4124 14 12.6875Z" fill="white"/>
<path d="M16.625 15.3125C16.625 14.5876 16.0374 14 15.3125 14C14.5876 14 14 14.5876 14 15.3125C14 16.0374 14.5876 16.625 15.3125 16.625C16.0374 16.625 16.625 16.0374 16.625 15.3125Z" fill="white"/>
<path d="M19.25 17.9375C19.25 17.2126 18.6624 16.625 17.9375 16.625C17.2126 16.625 16.625 17.2126 16.625 17.9375C16.625 18.6624 17.2126 19.25 17.9375 19.25C18.6624 19.25 19.25 18.6624 19.25 17.9375Z" fill="white"/>
<path d="M19.25 12.6875C19.25 11.9626 18.6624 11.375 17.9375 11.375C17.2126 11.375 16.625 11.9626 16.625 12.6875C16.625 13.4124 17.2126 14 17.9375 14C18.6624 14 19.25 13.4124 19.25 12.6875Z" fill="white"/>
<path d="M14 17.9375C14 17.2126 13.4124 16.625 12.6875 16.625C11.9626 16.625 11.375 17.2126 11.375 17.9375C11.375 18.6624 11.9626 19.25 12.6875 19.25C13.4124 19.25 14 18.6624 14 17.9375Z" fill="white"/>
</svg>
