<svg width="11" height="18" viewBox="0 0 11 18" fill="none" xmlns="http://www.w3.org/2000/svg">
<path d="M0.385812 0.384282C0.139756 0.630412 0.00152965 0.964191 0.00152964 1.31222C0.00152962 1.66025 0.139756 1.99403 0.385812 2.24016L6.88269 8.73703L0.385811 15.2339C0.146729 15.4814 0.014436 15.813 0.0174267 16.1571C0.0204165 16.5013 0.158451 16.8304 0.401799 17.0738C0.645148 17.3171 0.974339 17.4552 1.31847 17.4582C1.66261 17.4612 1.99415 17.3289 2.24169 17.0898L9.6665 9.66497C9.91255 9.41884 10.0508 9.08506 10.0508 8.73703C10.0508 8.389 9.91255 8.05523 9.6665 7.8091L2.24169 0.384282C1.99556 0.138226 1.66178 -3.66695e-07 1.31375 -3.81908e-07C0.965721 -3.97121e-07 0.631942 0.138226 0.385812 0.384282Z" fill="#B9B9B9"/>
</svg>
