<svg width="212" height="210" viewBox="0 0 212 210" fill="none" xmlns="http://www.w3.org/2000/svg">
<path d="M3.29558 41.3656C1.47592 41.3656 0 39.9001 0 38.0933V3.2723C0 1.46549 1.47592 0 3.29558 0H38.3629C40.1826 0 41.6585 1.46549 41.6585 3.2723C41.6585 5.0791 40.1826 6.5446 38.3629 6.5446H6.59115V38.0919C6.59115 39.8987 5.11524 41.3642 3.29558 41.3642V41.3656Z" fill="white"/>
<path d="M208.703 41.3656C206.883 41.3656 205.407 39.9001 205.407 38.0933V6.5446H173.635C171.816 6.5446 170.34 5.0791 170.34 3.2723C170.34 1.46549 171.816 0 173.635 0H208.703C210.522 0 211.998 1.46549 211.998 3.2723V38.0919C211.998 39.8987 210.522 41.3642 208.703 41.3642V41.3656Z" fill="white"/>
<path d="M38.3643 209.997H3.29558C1.47592 209.997 0 208.532 0 206.725V171.905C0 170.098 1.47592 168.633 3.29558 168.633C5.11524 168.633 6.59115 170.098 6.59115 171.905V203.452H38.3629C40.1826 203.452 41.6585 204.918 41.6585 206.725C41.6585 208.532 40.1826 209.997 38.3629 209.997H38.3643Z" fill="white"/>
<path d="M208.703 209.997H173.635C171.816 209.997 170.34 208.532 170.34 206.725C170.34 204.918 171.816 203.452 173.635 203.452H205.407V171.905C205.407 170.098 206.883 168.633 208.703 168.633C210.522 168.633 211.998 170.098 211.998 171.905V206.725C211.998 208.532 210.522 209.997 208.703 209.997Z" fill="white"/>
</svg>
