<svg width="24" height="24" viewBox="0 0 24 24" fill="none" xmlns="http://www.w3.org/2000/svg">
<path d="M14.6957 9.32791L11.2329 12.7907M21.9538 1.28378C22.0633 1.24598 22.1813 1.23976 22.2942 1.26583C22.4071 1.2919 22.5104 1.3492 22.5922 1.43119C22.6741 1.51318 22.7313 1.61655 22.7572 1.72949C22.7831 1.84242 22.7767 1.96037 22.7387 2.06984L15.9008 21.6117C15.8599 21.7285 15.7848 21.8303 15.6853 21.904C15.5858 21.9776 15.4665 22.0196 15.3428 22.0246C15.2191 22.0296 15.0968 21.9973 14.9917 21.9319C14.8866 21.8665 14.8036 21.771 14.7534 21.6579L11.0378 13.2986C10.9753 13.1596 10.864 13.0483 10.725 12.9858L2.36577 9.26905C2.253 9.21869 2.15791 9.13568 2.09279 9.03073C2.02768 8.92578 1.99553 8.80371 2.0005 8.68031C2.00547 8.5569 2.04733 8.43782 2.12068 8.33844C2.19402 8.23907 2.29548 8.16397 2.41194 8.12285L21.9538 1.28378Z" stroke="#ED93FF" stroke-width="2.21621" stroke-linecap="round" stroke-linejoin="round"/>
</svg>
