<svg width="23" height="23" viewBox="0 0 23 23" fill="none" xmlns="http://www.w3.org/2000/svg">
<path fill-rule="evenodd" clip-rule="evenodd" d="M12.1474 1.38H10.8526L10.1108 4.3447L9.36675 4.5747C8.93318 4.7083 8.51312 4.88233 8.1121 5.0945L7.42325 5.45905L4.80125 3.88585L3.88585 4.8024L5.45905 7.4244L5.0945 8.1121C4.88194 8.51308 4.70752 8.93314 4.57355 9.36675L4.3447 10.1108L1.38 10.8526V12.1474L4.3447 12.8892L4.5747 13.6332C4.70733 14.0687 4.8806 14.4869 5.0945 14.8879L5.45905 15.5767L3.88585 18.1988L4.8024 19.1141L7.4244 17.541L8.1121 17.9055C8.51307 18.1186 8.93128 18.2923 9.36675 18.4265L10.1108 18.6553L10.8526 21.62H12.1474L12.8892 18.6553L13.6332 18.4253C14.0668 18.2917 14.4869 18.1177 14.8879 17.9055L15.5767 17.541L18.1988 19.1141L19.1141 18.1976L17.541 15.5756L17.9055 14.8879C18.1186 14.4869 18.2923 14.0687 18.4265 13.6332L18.6553 12.8892L21.62 12.1474V10.8526L18.6553 10.1108L18.4253 9.36675C18.2917 8.93318 18.1177 8.51312 17.9055 8.1121L17.541 7.42325L19.1141 4.80125L18.1976 3.88585L15.5756 5.45905L14.8879 5.0945C14.4869 4.88194 14.0669 4.70752 13.6332 4.57355L12.8892 4.3447L12.1474 1.38ZM15.5342 3.8755L17.6421 2.6105C17.8619 2.47867 18.1195 2.42404 18.3739 2.45529C18.6283 2.48654 18.8649 2.60188 19.0463 2.783L20.217 3.9537C20.3981 4.13506 20.5135 4.37172 20.5447 4.62611C20.576 4.88051 20.5213 5.13805 20.3895 5.35785L19.1245 7.4658C19.3775 7.94113 19.5845 8.43947 19.7455 8.9608L22.1294 9.55765C22.3781 9.61995 22.5989 9.76355 22.7566 9.96566C22.9143 10.1678 23 10.4168 23 10.6732V12.3268C23 12.5832 22.9143 12.8322 22.7566 13.0343C22.5989 13.2364 22.3781 13.3801 22.1294 13.4423L19.7455 14.0392C19.5845 14.5605 19.3775 15.0589 19.1245 15.5342L20.3895 17.6421C20.5213 17.8619 20.576 18.1195 20.5447 18.3739C20.5135 18.6283 20.3981 18.8649 20.217 19.0463L19.0463 20.217C18.8649 20.3981 18.6283 20.5135 18.3739 20.5447C18.1195 20.576 17.8619 20.5213 17.6421 20.3895L15.5342 19.1245C15.0589 19.3775 14.5605 19.5845 14.0392 19.7455L13.4423 22.1294C13.3801 22.3781 13.2364 22.5989 13.0343 22.7566C12.8322 22.9143 12.5832 23 12.3268 23H10.6732C10.4168 23 10.1678 22.9143 9.96566 22.7566C9.76355 22.5989 9.61995 22.3781 9.55765 22.1294L8.9608 19.7455C8.4441 19.5858 7.94356 19.3779 7.4658 19.1245L5.35785 20.3895C5.13805 20.5213 4.88051 20.576 4.62611 20.5447C4.37172 20.5135 4.13506 20.3981 3.9537 20.217L2.783 19.0463C2.60188 18.8649 2.48654 18.6283 2.45529 18.3739C2.42404 18.1195 2.47867 17.8619 2.6105 17.6421L3.8755 15.5342C3.62209 15.0564 3.41417 14.5559 3.2545 14.0392L0.87055 13.4423C0.622057 13.3801 0.401463 13.2367 0.243757 13.0348C0.086051 12.8329 0.000262939 12.5842 0 12.328V10.6743C6.7395e-06 10.4179 0.0856775 10.1689 0.243404 9.96681C0.40113 9.7647 0.621866 9.6211 0.87055 9.5588L3.2545 8.96195C3.4155 8.44062 3.6225 7.94228 3.8755 7.46695L2.6105 5.359C2.47867 5.1392 2.42404 4.88166 2.45529 4.62726C2.48654 4.37287 2.60188 4.13621 2.783 3.95485L3.9537 2.783C4.13506 2.60188 4.37172 2.48654 4.62611 2.45529C4.88051 2.42404 5.13805 2.47867 5.35785 2.6105L7.4658 3.8755C7.94113 3.6225 8.43947 3.4155 8.9608 3.2545L9.55765 0.87055C9.6199 0.622057 9.76334 0.401463 9.96521 0.243757C10.1671 0.086051 10.4158 0.000262939 10.672 0H12.3257C12.5821 6.7395e-06 12.8311 0.0856775 13.0332 0.243404C13.2353 0.40113 13.3789 0.621866 13.4412 0.87055L14.038 3.2545C14.5594 3.4155 15.0577 3.6225 15.533 3.8755H15.5342ZM11.5 14.72C12.354 14.72 13.173 14.3808 13.7769 13.7769C14.3808 13.173 14.72 12.354 14.72 11.5C14.72 10.646 14.3808 9.82698 13.7769 9.22312C13.173 8.61925 12.354 8.28 11.5 8.28C10.646 8.28 9.82698 8.61925 9.22312 9.22312C8.61925 9.82698 8.28 10.646 8.28 11.5C8.28 12.354 8.61925 13.173 9.22312 13.7769C9.82698 14.3808 10.646 14.72 11.5 14.72ZM11.5 16.1C10.28 16.1 9.10998 15.6154 8.24731 14.7527C7.38464 13.89 6.9 12.72 6.9 11.5C6.9 10.28 7.38464 9.10998 8.24731 8.24731C9.10998 7.38464 10.28 6.9 11.5 6.9C12.72 6.9 13.89 7.38464 14.7527 8.24731C15.6154 9.10998 16.1 10.28 16.1 11.5C16.1 12.72 15.6154 13.89 14.7527 14.7527C13.89 15.6154 12.72 16.1 11.5 16.1Z" fill="#B9B9B9"/>
</svg>
