<svg width="20" height="20" viewBox="0 0 20 20" fill="none" xmlns="http://www.w3.org/2000/svg">
<circle cx="10" cy="10" r="10" fill="#3A3A3A"/>
<g clip-path="url(#clip0_5017_886)">
<path d="M4.6404 8.3875C4.56967 8.45581 4.47495 8.49361 4.37662 8.49275C4.2783 8.4919 4.18425 8.45246 4.11472 8.38293C4.04519 8.3134 4.00575 8.21935 4.0049 8.12103C4.00404 8.0227 4.04184 7.92798 4.11015 7.85725L6.36015 5.60725C6.43047 5.53695 6.52584 5.49746 6.62527 5.49746C6.72471 5.49746 6.82008 5.53695 6.8904 5.60725L9.1404 7.85725C9.20871 7.92798 9.24651 8.0227 9.24565 8.12103C9.2448 8.21935 9.20536 8.3134 9.13583 8.38293C9.0663 8.45246 8.97225 8.4919 8.87393 8.49275C8.7756 8.49361 8.68088 8.45581 8.61015 8.3875L6.99765 6.775V12.6175C6.99765 13.1148 7.19519 13.5917 7.54682 13.9433C7.89846 14.295 8.37537 14.4925 8.87265 14.4925L10.3726 14.4925C10.4721 14.4925 10.5675 14.532 10.6378 14.6023C10.7081 14.6727 10.7476 14.768 10.7476 14.8675C10.7476 14.967 10.7081 15.0623 10.6378 15.1327C10.5675 15.203 10.4721 15.2425 10.3726 15.2425L8.87265 15.2425C7.42515 15.2425 6.24765 14.065 6.24765 12.6175V6.775L4.63515 8.3875L4.6404 8.3875ZM9.6249 5.5C9.52544 5.5 9.43006 5.46049 9.35973 5.39016C9.28941 5.31984 9.2499 5.22446 9.2499 5.125C9.2499 5.02554 9.28941 4.93016 9.35973 4.85983C9.43006 4.78951 9.52544 4.75 9.6249 4.75L11.1249 4.75C12.5724 4.75 13.7499 5.9275 13.7499 7.375V13.2175L15.3624 11.605C15.4331 11.5367 15.5279 11.4989 15.6262 11.4997C15.7245 11.5006 15.8186 11.54 15.8881 11.6096C15.9576 11.6791 15.997 11.7732 15.9979 11.8715C15.9988 11.9698 15.961 12.0645 15.8926 12.1353L13.6426 14.3853C13.5723 14.4556 13.477 14.495 13.3775 14.495C13.2781 14.495 13.1827 14.4556 13.1124 14.3853L10.8624 12.1353C10.7941 12.0645 10.7563 11.9698 10.7571 11.8715C10.758 11.7732 10.7974 11.6791 10.867 11.6096C10.9365 11.54 11.0306 11.5006 11.1289 11.4997C11.2272 11.4989 11.3219 11.5367 11.3926 11.605L13.0051 13.2175V7.375C13.0051 6.87772 12.8076 6.40081 12.456 6.04917C12.1043 5.69754 11.6274 5.5 11.1301 5.5L9.63015 5.5L9.6249 5.5Z" fill="#B9B9B9"/>
</g>
<defs>
<clipPath id="clip0_5017_886">
<rect width="12" height="12" fill="white" transform="matrix(0 1 1 -4.37114e-08 4 4)"/>
</clipPath>
</defs>
</svg>
