<svg width="21" height="24" viewBox="0 0 21 24" fill="none" xmlns="http://www.w3.org/2000/svg">
<path d="M19.2119 10.4199C18.9902 10.4418 18.7806 10.5398 18.6211 10.6992L18.5566 10.7705C18.4155 10.9428 18.337 11.1597 18.3369 11.3848V14.167L18.333 14.3252C18.2938 15.1131 17.9637 15.8615 17.4033 16.4219L17.2881 16.5303C16.7034 17.0594 15.9409 17.3545 15.1484 17.3545H5.02051L7.52832 14.8477L7.53223 14.8447C7.70871 14.6619 7.8068 14.4163 7.80469 14.1621V14.1611L7.79883 14.0664C7.77505 13.847 7.67641 13.6413 7.51953 13.4844L7.44922 13.4209C7.27858 13.281 7.06479 13.2032 6.84277 13.2012L6.74805 13.2051C6.56001 13.2218 6.38076 13.2928 6.23242 13.4102L6.16113 13.4727L6.15723 13.4756L1.99902 17.6348H1.99805L1.93457 17.7061C1.79355 17.8785 1.71496 18.0947 1.71484 18.3193L1.71973 18.415C1.73847 18.6053 1.81316 18.7862 1.93457 18.9346L1.99902 19.0059L6.15723 23.1631L6.16113 23.167C6.32088 23.321 6.52805 23.4159 6.74805 23.4355L6.84277 23.4395C7.06575 23.4375 7.27911 23.3576 7.44922 23.2178L7.51953 23.1543C7.67636 22.9974 7.77517 22.792 7.79883 22.5723L7.80469 22.4775C7.80682 22.2231 7.70819 21.9784 7.53223 21.7959L5.02148 19.2852H15.1484C17.9726 19.2852 20.2715 16.9909 20.2773 14.168V11.3848L20.2725 11.2891C20.2502 11.0668 20.1511 10.8581 19.9922 10.6992L19.9209 10.6348C19.7485 10.4937 19.5321 10.4162 19.3076 10.416L19.2119 10.4199ZM13.6729 0.728516C13.4533 0.752225 13.2478 0.850837 13.0908 1.00781L13.0264 1.07812C12.8867 1.24865 12.8086 1.46264 12.8066 1.68457L12.8105 1.7793C12.83 1.99843 12.9236 2.20592 13.0781 2.36621L13.5547 2.86035V2.83301L15.5889 4.86719H5.46191L5.19824 4.87402C2.4925 5.01148 0.333297 7.25578 0.333008 9.99512V12.7812L0.334961 12.7959L0.348633 12.9307L0.350586 12.9443L0.352539 12.9561C0.380319 13.0955 0.438451 13.2285 0.523438 13.3438L0.618164 13.4531C0.777627 13.6125 0.986466 13.7105 1.20801 13.7324L1.30371 13.7363C1.52807 13.7362 1.74588 13.6592 1.91895 13.5176L1.99023 13.4531C2.17236 13.2709 2.27331 13.0239 2.27344 12.7676V9.99512L2.27734 9.83691C2.31389 9.10161 2.60451 8.40124 3.09863 7.85547L3.20703 7.74023C3.76744 7.17995 4.51569 6.85049 5.30371 6.81152L5.46191 6.80762H15.5898L13.082 9.31445L13.0781 9.31738L13.0156 9.38965C12.8787 9.56307 12.8048 9.77871 12.8066 10V10.001C12.8088 10.2226 12.8864 10.4368 13.0264 10.6074L13.0908 10.6777C13.2484 10.8352 13.4543 10.9317 13.6729 10.9551L13.7676 10.9609C14.0208 10.9631 14.2665 10.8667 14.4502 10.6895L14.4541 10.6865L18.6113 6.52734C18.7922 6.34623 18.8964 6.10057 18.8965 5.84277L18.8916 5.74609C18.8693 5.52393 18.7701 5.31503 18.6113 5.15625L14.4541 0.999023L14.4512 0.995117L14.2578 1.19434L14.4502 0.995117C14.2673 0.818735 14.0217 0.720448 13.7676 0.722656L13.6729 0.728516Z" fill="#ED93FF" stroke="#ED93FF" stroke-width="0.554051"/>
</svg>
