<svg width="31" height="31" viewBox="0 0 31 31" fill="none" xmlns="http://www.w3.org/2000/svg">
<circle cx="15.5" cy="15.5" r="15.5" fill="#2B2B2B"/>
<path d="M10.5002 10L10.5859 10.0052C10.7401 10.0234 10.8815 10.0899 10.984 10.1923C11.0865 10.2947 11.143 10.4262 11.143 10.5623V20.0784L13.903 17.6656L13.975 17.6116C14.1055 17.5268 14.2678 17.4884 14.4294 17.504C14.591 17.5197 14.7397 17.5883 14.8458 17.6961C14.9518 17.8039 15.0072 17.9428 15.0009 18.0849C14.9946 18.2269 14.9269 18.3616 14.8116 18.4619L10.951 21.8358L10.879 21.8898C10.7552 21.9698 10.6026 22.0083 10.4491 21.9982C10.2956 21.9882 10.1513 21.9303 10.0424 21.8351L6.18785 18.4611L6.12613 18.3981C6.03443 18.2897 5.9903 18.1562 6.00179 18.0217C6.01327 17.8872 6.07961 17.7609 6.18871 17.6656L6.26071 17.6116C6.38461 17.5314 6.53733 17.4928 6.69105 17.5029C6.84477 17.5129 6.98924 17.5709 7.09814 17.6664L9.8573 20.0813V10.5623L9.86244 10.4858C9.88357 10.3512 9.95971 10.2278 10.0768 10.1385C10.1939 10.0492 10.3448 10 10.5002 10ZM19.9588 10.1649L23.8117 13.5351L23.8742 13.5981C23.9657 13.7064 24.0097 13.8399 23.9982 13.9742C23.9867 14.1085 23.9205 14.2347 23.8117 14.3299L23.7397 14.3846C23.6158 14.4646 23.4633 14.5031 23.3098 14.4931C23.1562 14.483 23.0119 14.4251 22.9031 14.3299L20.1456 11.9172V21.4377L20.1388 21.5142C20.1177 21.6488 20.0415 21.7722 19.9244 21.8615C19.8074 21.9508 19.6573 22 19.5019 22L19.4153 21.9948C19.2613 21.9764 19.12 21.9099 19.0178 21.8075C18.9155 21.7051 18.8591 21.5737 18.8591 21.4377L18.8599 11.9187L16.0973 14.3306L16.0253 14.3846C15.8948 14.4684 15.7329 14.506 15.5721 14.4899C15.4112 14.4738 15.2632 14.4052 15.1577 14.2978C15.0521 14.1904 14.9968 14.0522 15.0027 13.9106C15.0086 13.7691 15.0754 13.6347 15.1896 13.5344L19.0502 10.1649L19.1231 10.111C19.2469 10.031 19.3994 9.99247 19.553 10.0025C19.7065 10.0126 19.8508 10.0705 19.9596 10.1657" fill="white"/>
</svg>
