<svg width="13" height="13" viewBox="0 0 13 13" fill="none" xmlns="http://www.w3.org/2000/svg">
<path fill-rule="evenodd" clip-rule="evenodd" d="M6.82106 12.5981L6.8151 12.5992L6.77664 12.6181L6.76581 12.6203L6.75822 12.6181L6.71977 12.5992C6.71399 12.5973 6.70965 12.5983 6.70677 12.6019L6.7046 12.6073L6.69539 12.8391L6.6981 12.8499L6.70352 12.857L6.75985 12.8971L6.76797 12.8992L6.77447 12.8971L6.83081 12.857L6.83731 12.8483L6.83947 12.8391L6.83027 12.6078C6.82882 12.602 6.82575 12.5988 6.82106 12.5981ZM6.9646 12.5369L6.95756 12.5379L6.85735 12.5883L6.85193 12.5937L6.85031 12.5997L6.86006 12.8326L6.86277 12.8391L6.8671 12.8429L6.97597 12.8933C6.98283 12.8951 6.98807 12.8936 6.99168 12.8889L6.99385 12.8814L6.97543 12.5488C6.97363 12.5423 6.97002 12.5383 6.9646 12.5369ZM6.57731 12.5379C6.57492 12.5365 6.57207 12.536 6.56934 12.5366C6.56662 12.5372 6.56423 12.5389 6.56268 12.5412L6.55943 12.5488L6.54102 12.8814C6.54138 12.8879 6.54445 12.8922 6.55022 12.8944L6.55835 12.8933L6.66722 12.8429L6.67264 12.8386L6.67481 12.8326L6.68402 12.5997L6.68239 12.5932L6.67697 12.5878L6.57731 12.5379Z" fill="#ED93FF"/>
<path fill-rule="evenodd" clip-rule="evenodd" d="M11.6706 2.76843C11.8229 2.9208 11.9085 3.12742 11.9085 3.34287C11.9085 3.55832 11.8229 3.76494 11.6706 3.91731L5.58064 10.0073C5.50016 10.0878 5.40461 10.1516 5.29945 10.1952C5.19429 10.2388 5.08158 10.2612 4.96775 10.2612C4.85392 10.2612 4.7412 10.2388 4.63604 10.1952C4.53088 10.1516 4.43533 10.0878 4.35485 10.0073L1.3291 6.98206C1.2515 6.90711 1.1896 6.81745 1.14702 6.71832C1.10444 6.6192 1.08202 6.51258 1.08109 6.4047C1.08015 6.29681 1.10071 6.18982 1.14156 6.08997C1.18241 5.99012 1.24274 5.8994 1.31903 5.82311C1.39532 5.74682 1.48604 5.68649 1.58589 5.64564C1.68574 5.60479 1.79273 5.58423 1.90061 5.58517C2.0085 5.5861 2.11511 5.60852 2.21424 5.6511C2.31337 5.69368 2.40303 5.75558 2.47798 5.83318L4.96748 8.32268L10.5212 2.76843C10.5966 2.69293 10.6862 2.63304 10.7848 2.59217C10.8835 2.55131 10.9892 2.53027 11.0959 2.53027C11.2026 2.53027 11.3083 2.55131 11.4069 2.59217C11.5056 2.63304 11.5951 2.69293 11.6706 2.76843Z" fill="#ED93FF"/>
</svg>
