<svg width="18" height="16" viewBox="0 0 18 16" fill="none" xmlns="http://www.w3.org/2000/svg">
<path d="M0 2.25C0.648428 1.76187 1.43838 1.49855 2.25 1.5H15.75C16.594 1.5 17.373 1.779 18 2.25C18 1.95453 17.9418 1.66194 17.8287 1.38896C17.7157 1.11598 17.5499 0.867941 17.341 0.65901C17.1321 0.450078 16.884 0.284344 16.611 0.171271C16.3381 0.058198 16.0455 0 15.75 0H2.25C1.65326 0 1.08097 0.237053 0.65901 0.65901C0.237053 1.08097 0 1.65326 0 2.25ZM0 5.25C0.648428 4.76187 1.43838 4.49855 2.25 4.5H15.75C16.594 4.5 17.373 4.779 18 5.25C18 4.95453 17.9418 4.66194 17.8287 4.38896C17.7157 4.11598 17.5499 3.86794 17.341 3.65901C17.1321 3.45008 16.884 3.28434 16.611 3.17127C16.3381 3.0582 16.0455 3 15.75 3H2.25C1.65326 3 1.08097 3.23705 0.65901 3.65901C0.237053 4.08097 0 4.65326 0 5.25ZM6 6C6.26522 6 6.51957 6.10536 6.70711 6.29289C6.89464 6.48043 7 6.73478 7 7C7 7.53043 7.21071 8.03914 7.58579 8.41421C7.96086 8.78929 8.46957 9 9 9C9.53043 9 10.0391 8.78929 10.4142 8.41421C10.7893 8.03914 11 7.53043 11 7C11 6.73478 11.1054 6.48043 11.2929 6.29289C11.4804 6.10536 11.7348 6 12 6H15.75C16.0455 6 16.3381 6.0582 16.611 6.17127C16.884 6.28434 17.1321 6.45008 17.341 6.65901C17.5499 6.86794 17.7157 7.11598 17.8287 7.38896C17.9418 7.66195 18 7.95453 18 8.25V13.75C18 14.0455 17.9418 14.3381 17.8287 14.611C17.7157 14.884 17.5499 15.1321 17.341 15.341C17.1321 15.5499 16.884 15.7157 16.611 15.8287C16.3381 15.9418 16.0455 16 15.75 16H2.25C1.65326 16 1.08097 15.7629 0.65901 15.341C0.237053 14.919 0 14.3467 0 13.75V8.25C0 7.65326 0.237053 7.08097 0.65901 6.65901C1.08097 6.23705 1.65326 6 2.25 6H6Z" fill="white"/>
</svg>
